#N canvas 608 210 622 351 10;
#X obj 16 59 netreceive 32000;
#X floatatom 214 104 5 0 0 0 Connect? - -;
#X obj 16 220 route ppx ppz prot;
#X msg 325 60 snd* xpos f zpos f play 0/1 loop 0/1 volume f;
#X msg 324 84 init file *.wav ambient 0/1;
#X obj 23 81 s istream;
#X msg 34 160 snd60 xpos 0.5 zpos 0.5 play 1 loop 0 volume 0.5;
#X msg 338 160 init60 file swoop.wav ambient 0;
#X obj 16 285 s ppx;
#X obj 51 265 s ppz;
#X obj 86 245 s prot;
#X text 51 285 Player's X position;
#X text 87 266 Player's Z position;
#X text 130 246 Player's global Y rotation;
#X obj 135 220 route snd*;
#X obj 205 220 route init*;
#X text 42 186 List of Unity message labels:;
#X text 36 133 Example messages:;
#X text 203 59 Message structures:;
#X obj 281 220 route create;
#X obj 13 2 cnv 15 220 25 empty empty TCP/IP_Message_Receiver 20 12
0 14 -233017 -66577 0;
#X obj 167 127 PRINT;
#X obj 364 220 sel 0;
#X obj 364 240 s kill;
#X connect 0 0 2 0;
#X connect 0 0 5 0;
#X connect 0 0 21 0;
#X connect 0 1 1 0;
#X connect 1 0 22 0;
#X connect 2 0 8 0;
#X connect 2 1 9 0;
#X connect 2 2 10 0;
#X connect 2 3 14 0;
#X connect 6 0 2 0;
#X connect 7 0 15 0;
#X connect 14 1 15 0;
#X connect 15 1 19 0;
#X connect 22 0 23 0;
#X coords 0 -1 1 1 150 25 1 100 100;
