#N canvas 72 553 265 182 10;
#N canvas 785 244 483 379 router 0;
#X obj 13 13 r istream;
#X obj 65 58 unpack s s s f;
#X obj 13 126 unpack s f s f s f s f s f;
#X obj 92 104 s \$0-name;
#X obj 146 83 s \$0-ambient;
#X obj 132 171 s \$0-loop;
#X obj 166 151 s \$0-vol;
#X obj 30 280 s \$0-play;
#X obj 64 211 s \$0-xpos;
#X obj 98 191 s \$0-zpos;
#X obj 13 35 route snd\$1 init\$1;
#X obj 30 233 t f f;
#X obj 57 256 s \$0-switch;
#X text 67 234 Play and on/off state;
#X text 195 171 Loop state;
#X text 224 151 Volume;
#X text 165 209 (global);
#X text 164 198 Sound's virtual position;
#X text 226 83 Ambient state;
#X text 155 104 File name (no location);
#X connect 0 0 10 0;
#X connect 1 1 3 0;
#X connect 1 3 4 0;
#X connect 2 1 11 0;
#X connect 2 3 8 0;
#X connect 2 5 9 0;
#X connect 2 7 5 0;
#X connect 2 9 6 0;
#X connect 10 0 2 0;
#X connect 10 1 1 0;
#X connect 11 0 7 0;
#X connect 11 1 12 0;
#X restore 112 28 pd router;
#N canvas 986 26 454 436 table 0;
#N canvas 0 22 450 300 (subpatch) 0;
#X array \$0-snd 1.7779e+06 float 2;
#X coords 0 1 1.7779e+06 -1 200 140 1;
#X restore 242 26 graph;
#X obj 37 210 soundfiler;
#X obj 82 54 f \$0;
#X obj 82 34 r onstart;
#X obj 37 14 r \$0-name;
#X floatatom 37 313 5 0 0 0 - - -;
#X obj 37 334 s \$0-length;
#X obj 37 74 pack s f;
#X obj 112 334 s \$0-samps;
#X obj 37 230 t f f;
#X msg 37 175 read -resize /Users/ericbohanon/Desktop/RHC/3Dsound/sfs/\$1
\$2-snd;
#X obj 37 291 / 48;
#X text 180 334 Lengths in ms and samples;
#X text 51 156 Load soundfile:;
#X connect 1 0 9 0;
#X connect 2 0 7 1;
#X connect 3 0 2 0;
#X connect 4 0 7 0;
#X connect 5 0 6 0;
#X connect 7 0 10 0;
#X connect 9 0 11 0;
#X connect 9 1 8 0;
#X connect 10 0 1 0;
#X connect 11 0 5 0;
#X restore 112 53 pd table;
#N canvas 158 38 235 465 play-it 0;
#X obj 9 -35 tabread4~ \$0-snd;
#X obj 9 58 *~ 0;
#X obj 9 -107 pack 0 f f;
#X obj 66 -127 r \$0-length;
#X obj 37 -147 r \$0-samps;
#X msg 9 -78 \$1 \, \$2 \$3;
#X obj 9 -58 line~;
#X obj 9 222 *~;
#X obj 24 161 dbtorms;
#X obj 39 122 r \$0-vol;
#X msg 24 181 \$1 50;
#X obj 24 201 line~;
#N canvas 406 186 547 466 logic 0;
#X obj 6 -22 r \$0-play;
#X obj 6 -2 t f b;
#X obj 33 325 spigot;
#X obj 248 19 r \$0-ambient;
#X obj 6 386 s \$0-trig;
#X obj 33 345 s \$0-start;
#X obj 295 162 del 10000;
#X obj 233 -23 r \$0-length;
#X obj 265 122 bng 15 250 50 0 empty empty empty 17 7 0 10 -262144
-1 -1;
#X obj 295 142 spigot;
#X obj 233 38 f;
#X obj 233 -2 t b f;
#X obj 233 58 t f f;
#X obj 33 62 spigot;
#X obj 66 -22 r \$0-loop;
#X obj 85 124 spigot;
#X obj 265 102 sel 1;
#X obj 86 189 del 10000;
#X obj 66 147 bng 15 250 50 0 empty empty empty 17 7 0 10 -262144 -1
-1;
#X obj 86 169 spigot;
#X obj 233 102 != 1;
#X obj 66 38 != 1;
#X obj 85 103 sel 1;
#X obj 66 18 t f f f;
#X text 113 18 Loop state check;
#X text 315 86 Ambient state check;
#X text 102 354 Triggers;
#X obj 6 366 change;
#X obj 66 -2 change;
#X connect 0 0 1 0;
#X connect 1 0 27 0;
#X connect 1 1 13 0;
#X connect 2 0 5 0;
#X connect 3 0 10 1;
#X connect 6 0 8 0;
#X connect 6 0 5 0;
#X connect 7 0 11 0;
#X connect 7 0 17 1;
#X connect 8 0 9 0;
#X connect 9 0 6 0;
#X connect 10 0 12 0;
#X connect 11 0 10 0;
#X connect 11 1 6 1;
#X connect 12 0 16 0;
#X connect 12 0 20 0;
#X connect 12 1 9 1;
#X connect 13 0 2 0;
#X connect 14 0 28 0;
#X connect 15 0 18 0;
#X connect 16 0 8 0;
#X connect 17 0 18 0;
#X connect 17 0 5 0;
#X connect 18 0 19 0;
#X connect 19 0 17 0;
#X connect 20 0 15 1;
#X connect 20 0 2 1;
#X connect 21 0 13 1;
#X connect 22 0 15 0;
#X connect 23 0 21 0;
#X connect 23 1 22 0;
#X connect 23 2 19 1;
#X connect 27 0 4 0;
#X connect 28 0 23 0;
#X restore 9 -187 pd logic;
#X obj 30 -12 r \$0-trig;
#X obj 9 -167 r \$0-start;
#X obj 9 243 outlet~;
#X obj 24 141 f;
#X obj 24 103 r \$0-start;
#X text 140 -127 milliseconds;
#X text 105 -147 samples;
#X text 64 -187 Trigger system's logic;
#X text 113 -35 Read sound's array;
#X obj 30 35 line;
#X msg 93 8 0;
#X obj 93 -12 r onstart;
#X msg 30 14 \$1 100;
#X text 97 102 Volume boost/cut;
#X obj 154 -12 r kill;
#X obj 127 61 snapshot~;
#X obj 127 82 PRINT;
#X obj 127 38 metro 100;
#X obj 126 17 tgl 15 0 empty empty empty 17 7 0 10 -262144 -1 -1 0
1;
#X floatatom 127 200 5 0 0 0 - - -;
#X connect 0 0 1 0;
#X connect 1 0 7 0;
#X connect 2 0 5 0;
#X connect 3 0 2 2;
#X connect 4 0 2 1;
#X connect 5 0 6 0;
#X connect 6 0 0 0;
#X connect 7 0 15 0;
#X connect 8 0 10 0;
#X connect 9 0 16 1;
#X connect 10 0 11 0;
#X connect 11 0 7 1;
#X connect 13 0 25 0;
#X connect 14 0 2 0;
#X connect 16 0 8 0;
#X connect 16 0 32 0;
#X connect 17 0 16 0;
#X connect 22 0 1 1;
#X connect 23 0 22 0;
#X connect 24 0 23 0;
#X connect 25 0 22 0;
#X connect 27 0 23 0;
#X connect 28 0 29 0;
#X connect 30 0 28 0;
#X connect 31 0 30 0;
#X restore 37 28 pd play-it;
#X obj 37 53 VBAPabs \$0;
#X obj 181 53 switch~;
#X obj 181 29 tgl 15 0 empty \$0-switch empty 17 7 0 10 -262144 -1
-1 1 1;
#X connect 2 0 3 0;
#X connect 5 0 4 0;
