#N canvas 2593 351 686 491 10;
#X obj 71 228 vbap 0 0;
#X obj 71 250 route 0 1 2 3;
#X obj 71 28 receive speaker_setup;
#X obj 56 414 throw~ ch1;
#X obj 71 373 line~;
#X msg 71 353 \$1 50;
#X obj 56 394 *~;
#X obj 139 373 line~;
#X msg 139 353 \$1 50;
#X obj 124 394 *~;
#X obj 208 373 line~;
#X msg 208 353 \$1 50;
#X obj 193 394 *~;
#X obj 277 373 line~;
#X msg 277 353 \$1 50;
#X obj 262 394 *~;
#X obj 193 414 throw~ ch3;
#X obj 124 414 throw~ ch2;
#X obj 262 414 throw~ ch4;
#X obj 150 51 r \$1-ambient;
#X obj 150 71 sel 0 1;
#X msg 150 114 25;
#N canvas 2428 159 292 379 convert 0;
#X obj 98 47 r ppx;
#X obj 83 68 - 0;
#X obj 83 28 r \$1-xpos;
#X obj 143 68 - 0;
#X obj 143 28 r \$1-zpos;
#X obj 158 47 r ppz;
#X obj 83 291 cart2pol;
#X obj 90 88 r prot;
#X obj 90 145 sin;
#X obj 120 145 cos;
#X obj 83 200 *;
#X obj 122 199 *;
#X obj 90 167 t b f;
#X obj 130 167 t b f;
#X obj 105 314 s \$0-angle;
#X obj 83 334 s \$0-mag;
#X obj 125 269 s \$0-magx;
#X obj 125 249 abs;
#X obj 189 249 abs;
#X obj 189 270 s \$0-magz;
#X connect 0 0 1 1;
#X connect 1 0 10 0;
#X connect 2 0 1 0;
#X connect 3 0 11 0;
#X connect 4 0 3 0;
#X connect 5 0 3 1;
#X connect 6 0 15 0;
#X connect 6 1 14 0;
#X connect 7 0 8 0;
#X connect 7 0 9 0;
#X connect 8 0 12 0;
#X connect 9 0 13 0;
#X connect 10 0 6 0;
#X connect 10 0 17 0;
#X connect 11 0 6 1;
#X connect 11 0 18 0;
#X connect 12 0 10 0;
#X connect 12 1 10 1;
#X connect 13 0 11 0;
#X connect 13 1 11 1;
#X connect 17 0 16 0;
#X connect 18 0 19 0;
#X restore 283 54 pd convert;
#X obj 231 271 inlet~;
#X obj 198 170 r \$0-mag;
#X obj 82 115 r \$0-angle;
#X obj 82 154 t b f;
#X obj 150 154 t b f;
#X msg 169 91 100;
#N canvas 2548 105 591 789 filter-take1 0;
#X floatatom 355 329 0 0 0 0 - - -;
#X obj 355 369 * 6.28319;
#X obj 355 349 / 360;
#X floatatom 355 408 5 0 0 0 - - -;
#X obj 148 34 r \$0-magx;
#X obj 292 33 r \$0-magy;
#X obj 322 133 clip -1 500;
#X obj 355 388 cos;
#X floatatom 334 170 0 0 0 0 - - -;
#X obj 334 210 * 6.28319;
#X obj 334 190 / 360;
#X floatatom 334 249 5 0 0 0 - - -;
#X obj 334 229 cos;
#X obj 148 55 <= 8.5;
#X obj 148 141 line;
#X obj 148 75 sel 0 1;
#X obj -15 155 lop~ 24000;
#X obj -15 175 lop~ 24000;
#X obj -15 195 lop~ 24000;
#X obj -15 215 lop~ 24000;
#X obj -15 235 lop~ 24000;
#X obj 47 4 inlet~;
#X obj 151 264 line;
#X obj 181 264 line;
#X obj 235 264 line;
#X obj 124 284 rev2~ 90 80 3000 58;
#X msg 240 195 58 100;
#X msg 114 32 0;
#X msg 83 32 1;
#X obj -15 463 *~ 1;
#X obj 8 444 tgl 15 0 empty empty empty 17 7 0 10 -262144 -1 -1 0 1
;
#X obj -15 524 dac~;
#X msg 166 174 50 100;
#X obj -14 387 +~;
#X obj -15 256 hip~ 3;
#X obj -15 276 hip~ 3;
#X obj -15 296 hip~ 3;
#X obj -15 316 hip~ 3;
#X obj -15 336 hip~ 3;
#X obj 56 278 line;
#X msg 85 232 3 100;
#X msg 155 195 95 500;
#X msg 229 216 22 100;
#X msg 65 254 80 100;
#X obj 18 397 line;
#X msg 149 121 1000 100;
#X obj -15 417 *~ 1;
#X msg 72 344 1 800;
#X obj -15 496 pan~;
#X obj 34 477 line;
#X msg 44 441 5 800;
#X msg 80 417 0 800;
#X msg 176 215 80 100;
#X msg 165 234 40 500;
#X msg 45 367 1.1 800;
#N canvas 0 22 450 300 testing 0;
#X restore 231 11 pd testing;
#X msg 167 97 24000 100;
#X connect 0 0 2 0;
#X connect 1 0 7 0;
#X connect 2 0 1 0;
#X connect 4 0 13 0;
#X connect 7 0 3 0;
#X connect 8 0 10 0;
#X connect 9 0 12 0;
#X connect 10 0 9 0;
#X connect 12 0 11 0;
#X connect 13 0 15 0;
#X connect 14 0 16 1;
#X connect 14 0 17 1;
#X connect 14 0 18 1;
#X connect 14 0 19 1;
#X connect 14 0 20 1;
#X connect 15 0 45 0;
#X connect 15 0 41 0;
#X connect 15 0 53 0;
#X connect 15 0 42 0;
#X connect 15 0 43 0;
#X connect 15 0 54 0;
#X connect 15 0 50 0;
#X connect 15 1 56 0;
#X connect 15 1 32 0;
#X connect 15 1 52 0;
#X connect 15 1 26 0;
#X connect 15 1 40 0;
#X connect 15 1 47 0;
#X connect 15 1 51 0;
#X connect 16 0 17 0;
#X connect 17 0 18 0;
#X connect 18 0 19 0;
#X connect 19 0 20 0;
#X connect 20 0 34 0;
#X connect 22 0 25 1;
#X connect 23 0 25 2;
#X connect 24 0 25 4;
#X connect 25 0 33 1;
#X connect 26 0 24 0;
#X connect 27 0 15 0;
#X connect 28 0 15 0;
#X connect 29 0 48 0;
#X connect 30 0 29 1;
#X connect 32 0 22 0;
#X connect 33 0 46 0;
#X connect 34 0 35 0;
#X connect 35 0 36 0;
#X connect 36 0 37 0;
#X connect 37 0 38 0;
#X connect 38 0 25 0;
#X connect 38 0 33 0;
#X connect 39 0 34 1;
#X connect 39 0 35 1;
#X connect 39 0 36 1;
#X connect 39 0 37 1;
#X connect 39 0 38 1;
#X connect 40 0 39 0;
#X connect 41 0 22 0;
#X connect 42 0 24 0;
#X connect 43 0 39 0;
#X connect 44 0 46 1;
#X connect 45 0 14 0;
#X connect 46 0 29 0;
#X connect 47 0 44 0;
#X connect 48 0 31 0;
#X connect 48 1 31 1;
#X connect 49 0 48 1;
#X connect 50 0 49 0;
#X connect 51 0 49 0;
#X connect 52 0 23 0;
#X connect 53 0 23 0;
#X connect 54 0 44 0;
#X connect 56 0 14 0;
#X restore 284 74 pd filter-take1;
#N canvas 1650 147 842 735 filter 0;
#X obj 0 219 inlet~;
#X obj 0 240 lop~ 24000;
#X obj 0 260 lop~ 24000;
#X obj 0 280 lop~ 24000;
#X obj 0 300 lop~ 24000;
#X obj 0 320 lop~ 24000;
#X obj 0 576 +~;
#X obj 0 405 hip~ 3;
#X obj 0 425 hip~ 3;
#X obj 0 445 hip~ 3;
#X obj 0 465 hip~ 3;
#X obj 0 485 hip~ 3;
#X obj 21 619 line;
#X obj 0 639 *~ 1;
#X obj 329 407 line;
#X obj 359 407 line;
#X obj 413 407 line;
#X obj 152 517 rev2~ 90 80 3000 58;
#X obj 436 85 f \$0;
#X obj 571 85 f \$0;
#X obj 436 -27 r \$0-magx;
#X obj 0 662 outlet~;
#X obj 76 322 line;
#X obj 73 135 line;
#X obj 498 -27 r \$0-magx;
#X obj 82 185 t b f;
#X obj 139 302 t b f;
#X obj 142 12 r \$0-mag;
#X obj 436 43 ||;
#X obj 498 -6 >= 1.8288;
#X obj 436 -6 >= 2.5908;
#X obj 436 64 sel 0 1;
#X obj 498 14 t b f;
#X obj 73 115 r \$0-lops;
#X obj 76 302 r \$0-hips;
#X obj 329 345 r \$0-rev-vol;
#X obj 359 365 r \$0-rev-liv;
#X obj 21 598 r \$0-boost;
#X msg 571 105 \; \$1-lops 1000 100 \; \$1-hips 80 100 \; \$1-rev-vol
95 100 \; \$1-rev-liv 40 100 \; \$1-rev-damp 22 100 \; \$1-boost 1.1
800;
#X msg 436 105 \; \$1-lops 24000 100 \; \$1-hips 3 100 \; \$1-rev-vol
50 100 \; \$1-rev-liv 80 100 \; \$1-rev-damp 58 100 \; \$1-boost 1
800;
#X obj 142 93 spigot;
#X obj 90 576 +~;
#X obj 111 619 line;
#X obj 90 639 *~ 1;
#X obj 90 662 outlet~;
#X obj 111 598 r \$0-boost;
#X obj 180 576 +~;
#X obj 201 619 line;
#X obj 180 639 *~ 1;
#X obj 180 662 outlet~;
#X obj 201 598 r \$0-boost;
#X obj 270 576 +~;
#X obj 291 619 line;
#X obj 270 639 *~ 1;
#X obj 270 662 outlet~;
#X obj 291 598 r \$0-boost;
#N canvas 1139 372 301 316 rolloff 0;
#X floatatom 14 120 0 0 0 0 - - -;
#X floatatom 14 159 5 0 0 0 - - -;
#X obj 14 139 cos;
#X obj 14 198 * 1000;
#X obj 14 217 - 1000;
#X obj 64 198 * 80;
#X obj 64 217 - 80;
#X obj 14 101 line;
#X msg 14 51 \$1 50;
#X obj 14 30 inlet;
#X obj 14 240 outlet;
#X obj 64 240 outlet;
#X obj 101 29 inlet;
#X obj 101 49 sel 0;
#X msg 101 68 0 50;
#X obj 114 240 outlet;
#X obj 164 240 outlet;
#X obj 114 217 + 2;
#X obj 114 198 * -2;
#X obj 164 198 * 4;
#X obj 164 217 - 4;
#X connect 0 0 2 0;
#X connect 1 0 3 0;
#X connect 1 0 5 0;
#X connect 1 0 18 0;
#X connect 1 0 19 0;
#X connect 2 0 1 0;
#X connect 3 0 4 0;
#X connect 4 0 10 0;
#X connect 5 0 6 0;
#X connect 6 0 11 0;
#X connect 7 0 0 0;
#X connect 8 0 7 0;
#X connect 9 0 8 0;
#X connect 12 0 13 0;
#X connect 13 0 14 0;
#X connect 14 0 7 0;
#X connect 17 0 15 0;
#X connect 18 0 17 0;
#X connect 19 0 20 0;
#X connect 20 0 16 0;
#X restore 142 114 pd rolloff;
#X obj 142 33 - 2.2098;
#X obj 142 53 clip 0 5;
#X obj 142 73 * 0.31416;
#X obj 73 215 + 0;
#X obj 76 382 + 0;
#X obj 179 493 + 0;
#X obj 207 493 + 0;
#X obj 263 493 + 0;
#X obj 207 421 t b f;
#X obj 247 421 t b f;
#X text 12 -6 and sound coming through a wall;
#X text 5 -23 Filters and reverb to simulate distance;
#X text 234 131 parameter changes;
#X text 215 113 Cosine function for non-linear;
#X text 199 12 Distance b/w sound and listener;
#X text 560 -27 Listener-relative coordinates;
#X text 542 19 Logic determining when the "wall" threshold;
#X text 559 36 is crossed (in meters);
#X text 436 205 "Clean" parameters;
#X text 576 206 "Dirty" parameters for;
#X text 594 225 when wall thresh. is crossed;
#X text 406 346 reverb volume;
#X text 437 364 reverb liveliness;
#X obj 413 385 r \$0-rev-damp;
#X text 507 385 HF dampening percentage;
#X text 360 598 Boost the sound for a better mix when filtered;
#X text 59 449 Hi pass to remove;
#X text 79 468 muddiness;
#X text 82 241 Lo-pass for distance/wall simulation;
#X connect 0 0 1 0;
#X connect 1 0 2 0;
#X connect 2 0 3 0;
#X connect 3 0 4 0;
#X connect 4 0 5 0;
#X connect 5 0 7 0;
#X connect 6 0 13 0;
#X connect 7 0 8 0;
#X connect 8 0 9 0;
#X connect 9 0 10 0;
#X connect 10 0 11 0;
#X connect 11 0 6 0;
#X connect 11 0 17 0;
#X connect 11 0 41 0;
#X connect 11 0 46 0;
#X connect 11 0 51 0;
#X connect 12 0 13 1;
#X connect 13 0 21 0;
#X connect 14 0 62 0;
#X connect 15 0 63 0;
#X connect 16 0 64 0;
#X connect 17 0 6 1;
#X connect 17 1 41 1;
#X connect 17 2 46 1;
#X connect 17 3 51 1;
#X connect 18 0 39 0;
#X connect 19 0 38 0;
#X connect 20 0 30 0;
#X connect 22 0 61 0;
#X connect 23 0 60 0;
#X connect 24 0 29 0;
#X connect 25 0 60 0;
#X connect 25 1 60 1;
#X connect 26 0 61 0;
#X connect 26 1 61 1;
#X connect 27 0 57 0;
#X connect 28 0 31 0;
#X connect 28 0 40 1;
#X connect 28 0 56 1;
#X connect 29 0 32 0;
#X connect 30 0 28 0;
#X connect 31 0 18 0;
#X connect 31 1 19 0;
#X connect 32 0 28 0;
#X connect 32 1 28 1;
#X connect 33 0 23 0;
#X connect 34 0 22 0;
#X connect 35 0 14 0;
#X connect 36 0 15 0;
#X connect 37 0 12 0;
#X connect 40 0 56 0;
#X connect 41 0 43 0;
#X connect 42 0 43 1;
#X connect 43 0 44 0;
#X connect 45 0 42 0;
#X connect 46 0 48 0;
#X connect 47 0 48 1;
#X connect 48 0 49 0;
#X connect 50 0 47 0;
#X connect 51 0 53 0;
#X connect 52 0 53 1;
#X connect 53 0 54 0;
#X connect 55 0 52 0;
#X connect 56 0 25 0;
#X connect 56 1 26 0;
#X connect 56 2 65 0;
#X connect 56 3 66 0;
#X connect 57 0 58 0;
#X connect 58 0 59 0;
#X connect 59 0 40 0;
#X connect 60 0 1 1;
#X connect 60 0 2 1;
#X connect 60 0 3 1;
#X connect 60 0 4 1;
#X connect 60 0 5 1;
#X connect 61 0 7 1;
#X connect 61 0 8 1;
#X connect 61 0 9 1;
#X connect 61 0 10 1;
#X connect 61 0 11 1;
#X connect 62 0 17 1;
#X connect 63 0 17 2;
#X connect 64 0 17 4;
#X connect 65 0 63 0;
#X connect 65 1 63 1;
#X connect 66 0 64 0;
#X connect 66 1 64 1;
#X connect 80 0 16 0;
#X restore 231 293 pd filter;
#X text 132 223 vector based amplitude panning;
#X text 194 152 FIX_SPREAD_FOR_DISTANCE;
#X text 165 134 spread;
#X text 93 134 angle;
#X text 291 292 EQ/reverb;
#X connect 0 0 1 0;
#X connect 1 0 5 0;
#X connect 1 1 8 0;
#X connect 1 2 11 0;
#X connect 1 3 14 0;
#X connect 2 0 0 0;
#X connect 4 0 6 1;
#X connect 5 0 4 0;
#X connect 6 0 3 0;
#X connect 7 0 9 1;
#X connect 8 0 7 0;
#X connect 9 0 17 0;
#X connect 10 0 12 1;
#X connect 11 0 10 0;
#X connect 12 0 16 0;
#X connect 13 0 15 1;
#X connect 14 0 13 0;
#X connect 15 0 18 0;
#X connect 19 0 20 0;
#X connect 20 0 21 0;
#X connect 20 1 28 0;
#X connect 21 0 27 0;
#X connect 23 0 30 0;
#X connect 25 0 26 0;
#X connect 26 0 0 0;
#X connect 26 1 0 1;
#X connect 27 0 0 0;
#X connect 27 1 0 3;
#X connect 28 0 27 0;
#X connect 30 0 6 0;
#X connect 30 1 9 0;
#X connect 30 2 12 0;
#X connect 30 3 15 0;
