#N canvas 130 22 772 400 10;
#N canvas 0 22 704 454 speaker 0;
#X obj 85 167 send speaker_setup;
#X obj 85 129 define_loudspeakers 2 -22.5 -67.5 -112.5 -157.5 157.5
112.5 67.5 22.5;
#X obj 85 102 loadbang;
#X text 143 102 this defines the loudspeaker setup for 8 channels;
#X obj 56 52 bng 15 250 50 0 empty empty empty 17 7 0 10 -262144 -1
-1;
#X obj 82 14 inlet;
#X connect 1 0 0 0;
#X connect 2 0 1 0;
#X connect 4 0 1 0;
#X connect 5 0 4 0;
#X restore 470 189 pd speaker setup;
#X obj 470 159 bng 15 250 50 0 empty empty empty 17 7 0 10 -262144
-1 -1;
#X obj 31 66 vbap-abs 1;
#N canvas 0 22 285 387 overall-volume 0;
#X floatatom 106 121 5 0 0 0 - - -;
#X text 141 121 volume;
#X obj 105 179 dbtorms;
#X msg 106 203 \$1 50;
#X obj 105 230 line~;
#X obj 105 252 s~ overall-volume;
#N canvas 0 22 552 603 dac-8channels 0;
#X obj 111 118 catch~ ch1;
#X obj 127 140 catch~ ch2;
#X obj 146 161 catch~ ch3;
#X obj 162 182 catch~ ch4;
#X obj 195 116 catch~ ch5;
#X obj 212 138 catch~ ch6;
#X obj 230 159 catch~ ch7;
#X obj 246 180 catch~ ch8;
#N canvas 0 22 670 388 volume-8ch 0;
#X obj 40 47 inlet~;
#X obj 40 110 *~;
#X obj 40 214 outlet~;
#X obj 55 86 r~ overall-volume;
#X obj 95 57 inlet~;
#X obj 95 120 *~;
#X obj 95 224 outlet~;
#X obj 110 96 r~ overall-volume;
#X obj 142 76 inlet~;
#X obj 142 139 *~;
#X obj 142 243 outlet~;
#X obj 157 115 r~ overall-volume;
#X obj 199 92 inlet~;
#X obj 199 155 *~;
#X obj 199 259 outlet~;
#X obj 214 131 r~ overall-volume;
#X obj 254 102 inlet~;
#X obj 254 165 *~;
#X obj 254 269 outlet~;
#X obj 269 141 r~ overall-volume;
#X obj 301 121 inlet~;
#X obj 301 184 *~;
#X obj 301 288 outlet~;
#X obj 316 160 r~ overall-volume;
#X obj 376 149 inlet~;
#X obj 376 212 *~;
#X obj 376 316 outlet~;
#X obj 391 188 r~ overall-volume;
#X obj 431 159 inlet~;
#X obj 431 222 *~;
#X obj 431 326 outlet~;
#X obj 446 198 r~ overall-volume;
#X connect 0 0 1 0;
#X connect 1 0 2 0;
#X connect 3 0 1 1;
#X connect 4 0 5 0;
#X connect 5 0 6 0;
#X connect 7 0 5 1;
#X connect 8 0 9 0;
#X connect 9 0 10 0;
#X connect 11 0 9 1;
#X connect 12 0 13 0;
#X connect 13 0 14 0;
#X connect 15 0 13 1;
#X connect 16 0 17 0;
#X connect 17 0 18 0;
#X connect 19 0 17 1;
#X connect 20 0 21 0;
#X connect 21 0 22 0;
#X connect 23 0 21 1;
#X connect 24 0 25 0;
#X connect 25 0 26 0;
#X connect 27 0 25 1;
#X connect 28 0 29 0;
#X connect 29 0 30 0;
#X connect 31 0 29 1;
#X restore 138 266 pd volume-8ch;
#X obj 119 319 dac~ 1 2 3 4 5 6 7 8;
#X connect 0 0 8 0;
#X connect 1 0 8 1;
#X connect 2 0 8 2;
#X connect 3 0 8 3;
#X connect 4 0 8 4;
#X connect 5 0 8 5;
#X connect 6 0 8 6;
#X connect 7 0 8 7;
#X connect 8 0 9 0;
#X connect 8 1 9 1;
#X connect 8 2 9 2;
#X connect 8 3 9 3;
#X connect 8 4 9 4;
#X connect 8 5 9 5;
#X connect 8 6 9 6;
#X connect 8 7 9 7;
#X restore 102 297 pd dac-8channels;
#X connect 0 0 2 0;
#X connect 2 0 3 0;
#X connect 3 0 4 0;
#X connect 4 0 5 0;
#X coords 0 -1 1 1 85 60 1 100 100;
#X restore 451 66 pd overall-volume;
#X obj 31 22 adc~ 1;
#X obj 173 66 vbap-abs 2;
#X obj 173 26 noise~;
#X text 31 182 you can use multiple vbap-abs (each labeled with a new
creation argument);
#X text 32 223 then route to each one individually;
#X obj 595 6 adc~ 2;
#X obj 595 31 throw~ mic2;
#X connect 1 0 0 0;
#X connect 4 0 2 0;
#X connect 6 0 5 0;
#X connect 9 0 10 0;
