#N canvas 2040 42 450 300 10;
#X declare -path ./abs;
#X obj 16 270 declare -path ./abs;
#X obj 170 7 receiver;
#N canvas 2771 55 244 144 output 0;
#X obj -30 93 dac~ 1 2 3 4;
#X obj -30 9 catch~ ch1;
#X obj -7 30 catch~ ch2;
#X obj 16 51 catch~ ch3;
#X obj 39 72 catch~ ch4;
#X connect 1 0 0 0;
#X connect 2 0 0 1;
#X connect 3 0 0 2;
#X connect 4 0 0 3;
#X restore 240 249 pd output;
#N canvas 2040 365 450 300 sound_bank 0;
#X obj 20 20 sound 0;
#X obj 100 20 sound 1;
#X obj 180 20 sound 2;
#X obj 260 20 sound 3;
#X obj 340 20 sound 4;
#X obj 20 40 sound 5;
#X obj 100 40 sound 6;
#X obj 180 40 sound 7;
#X obj 260 40 sound 8;
#X obj 340 40 sound 9;
#X obj 20 60 sound 10;
#X obj 100 60 sound 11;
#X obj 180 60 sound 12;
#X obj 260 60 sound 13;
#X obj 340 60 sound 14;
#X obj 20 80 sound 15;
#X obj 100 80 sound 16;
#X obj 180 80 sound 17;
#X obj 260 80 sound 18;
#X obj 340 80 sound 19;
#X obj 20 100 sound 20;
#X obj 100 100 sound 21;
#X obj 180 100 sound 22;
#X obj 260 100 sound 23;
#X obj 340 100 sound 24;
#X obj 20 120 sound 25;
#X obj 100 120 sound 26;
#X obj 180 120 sound 27;
#X obj 260 120 sound 28;
#X obj 340 120 sound 29;
#X obj 20 140 sound 30;
#X obj 100 140 sound 31;
#X obj 180 140 sound 32;
#X obj 260 140 sound 33;
#X obj 340 140 sound 34;
#X obj 20 160 sound 35;
#X obj 100 160 sound 36;
#X obj 180 160 sound 37;
#X obj 260 160 sound 38;
#X obj 340 160 sound 39;
#X obj 20 180 sound 40;
#X obj 100 180 sound 41;
#X obj 180 180 sound 42;
#X obj 260 180 sound 43;
#X obj 340 180 sound 44;
#X obj 20 200 sound 45;
#X obj 100 200 sound 46;
#X obj 180 200 sound 47;
#X obj 260 200 sound 48;
#X obj 340 200 sound 49;
#X obj 20 220 sound 50;
#X obj 100 220 sound 51;
#X obj 180 220 sound 52;
#X obj 260 220 sound 53;
#X obj 340 220 sound 54;
#X obj 20 240 sound 55;
#X obj 100 240 sound 56;
#X obj 180 240 sound 57;
#X obj 260 240 sound 58;
#X obj 340 240 sound 59;
#X obj 20 260 sound 60;
#X obj 100 260 sound 61;
#X obj 180 260 sound 62;
#X obj 260 260 sound 63;
#X obj 340 260 sound 64;
#X obj 20 280 sound 65;
#X obj 100 280 sound 66;
#X obj 180 280 sound 67;
#X obj 260 280 sound 68;
#X obj 340 280 sound 69;
#X obj 20 300 sound 70;
#X obj 100 300 sound 71;
#X obj 180 300 sound 72;
#X obj 260 300 sound 73;
#X obj 340 300 sound 74;
#X obj 20 320 sound 75;
#X obj 100 320 sound 76;
#X obj 180 320 sound 77;
#X obj 260 320 sound 78;
#X obj 340 320 sound 79;
#X obj 20 340 sound 80;
#X obj 100 340 sound 81;
#X obj 180 340 sound 82;
#X obj 260 340 sound 83;
#X obj 340 340 sound 84;
#X obj 20 360 sound 85;
#X obj 100 360 sound 86;
#X obj 180 360 sound 87;
#X obj 260 360 sound 88;
#X obj 340 360 sound 89;
#X obj 20 380 sound 90;
#X obj 100 380 sound 91;
#X obj 180 380 sound 92;
#X obj 260 380 sound 93;
#X obj 340 380 sound 94;
#X obj 20 400 sound 95;
#X obj 100 400 sound 96;
#X obj 180 400 sound 97;
#X obj 260 400 sound 98;
#X obj 340 400 sound 99;
#X restore 157 271 pd sound_bank;
#N canvas 717 41 723 824 create 1;
#X obj 373 154 f 100;
#X obj 373 174 until;
#X obj 373 195 f 0;
#X obj 400 195 + 1;
#X obj 373 93 r istream;
#X obj 373 133 t b f;
#X obj 373 404 pack f f f;
#X msg 373 424 obj \$2 \$3 sound \$1;
#X obj 373 444 s pd-sound_bank;
#X obj 392 262 % 5;
#X obj 392 359 *;
#X obj 392 320 t b f;
#X msg 392 339 80;
#X obj 392 380 + 20;
#X obj 430 262 % 5;
#X obj 430 281 sel 0;
#X obj 456 300 + 1;
#X obj 430 300 f 0;
#X obj 430 359 *;
#X obj 430 320 t b f;
#X obj 430 380 + 20;
#X msg 430 339 20;
#X obj 353 133 bng 15 250 50 0 empty empty empty 17 7 0 10 -262144
-1 -1;
#X obj 373 113 route create;
#X obj 157 5 cnv 15 350 30 empty empty empty 20 12 0 14 -233017 -66577
0;
#X text 156 4 Dynamically creates abstractions where audio clips will
be loaded/triggered.;
#X obj 315 528 s onstart;
#N canvas 1190 22 250 110 speaker 0;
#X obj 3 63 send speaker_setup;
#X obj 3 24 bng 15 250 50 0 empty empty empty 17 7 0 10 -262144 -1
-1;
#X obj 3 4 inlet;
#X msg 3 42 define_loudspeakers 2 -135 -45 45 135;
#X connect 1 0 3 0;
#X connect 2 0 1 0;
#X connect 3 0 0 0;
#X restore 376 528 pd speaker setup;
#X obj 373 216 t f f f;
#X obj 315 498 sel 99;
#X obj 348 478 - 1;
#X msg 431 171 0;
#X connect 0 0 1 0;
#X connect 0 0 30 0;
#X connect 1 0 2 0;
#X connect 2 0 3 0;
#X connect 2 0 28 0;
#X connect 3 0 2 1;
#X connect 4 0 23 0;
#X connect 5 0 0 0;
#X connect 5 1 0 1;
#X connect 6 0 7 0;
#X connect 6 0 29 0;
#X connect 7 0 8 0;
#X connect 9 0 11 0;
#X connect 10 0 13 0;
#X connect 11 0 12 0;
#X connect 11 1 10 1;
#X connect 12 0 10 0;
#X connect 13 0 6 1;
#X connect 14 0 15 0;
#X connect 15 0 17 0;
#X connect 16 0 17 1;
#X connect 17 0 16 0;
#X connect 17 0 19 0;
#X connect 18 0 20 0;
#X connect 19 0 21 0;
#X connect 19 1 18 1;
#X connect 20 0 6 2;
#X connect 21 0 18 0;
#X connect 22 0 0 0;
#X connect 23 0 5 0;
#X connect 28 0 6 0;
#X connect 28 1 9 0;
#X connect 28 2 14 0;
#X connect 29 0 27 0;
#X connect 29 0 26 0;
#X connect 30 0 29 1;
#X connect 31 0 2 1;
#X restore 180 249 pd create;
#X obj 89 128 cnv 15 100 60 empty empty empty 20 12 0 14 -233017 -66577
0;
#X obj 86 57 cnv 15 100 60 empty empty empty 20 12 0 14 -233017 -66577
0;
