#N canvas 673 61 383 225 10;
#X declare -path ./abs;
#X obj 248 37 declare -path ./abs;
#X obj 216 3 receiver;
#N canvas 315 56 390 294 output 0;
#X obj -30 173 dac~ 1 2 3 4;
#X obj -30 9 catch~ ch1;
#X obj -7 50 catch~ ch2;
#X obj 16 91 catch~ ch3;
#X obj 39 132 catch~ ch4;
#X obj 156 42 r master_vol;
#X obj 159 63 hsl 128 15 0 127 0 0 empty empty empty -2 -8 0 10 -262144
-1 -1 12700 1;
#X obj 156 81 / 127;
#X obj 156 100 * 100;
#X obj 156 120 dbtorms;
#X obj 39 152 *~ 1;
#X obj 16 111 *~ 1;
#X obj -7 72 *~ 1;
#X obj -30 31 *~ 1;
#X connect 1 0 13 0;
#X connect 2 0 12 0;
#X connect 3 0 11 0;
#X connect 4 0 10 0;
#X connect 5 0 6 0;
#X connect 6 0 7 0;
#X connect 7 0 8 0;
#X connect 8 0 9 0;
#X connect 9 0 10 1;
#X connect 9 0 11 1;
#X connect 9 0 12 1;
#X connect 9 0 13 1;
#X connect 10 0 0 3;
#X connect 11 0 0 2;
#X connect 12 0 0 1;
#X connect 13 0 0 0;
#X restore 308 56 pd output;
#N canvas 78 225 450 300 sound_bank 0;
#X obj 100 0 sound 1;
#X obj 100 0 sound 1;
#X obj 100 0 sound 1;
#X obj 100 0 sound 1;
#X obj 100 0 sound 1;
#X obj 100 0 sound 1;
#X obj 100 0 sound 1;
#X restore 267 75 pd sound_bank;
#N canvas 841 53 524 594 create 0;
#X obj 106 133 f 100;
#X obj 106 213 until;
#X obj 133 234 + 1;
#X obj 106 72 r istream;
#X obj 106 443 pack f f f;
#X msg 106 463 obj \$2 \$3 sound \$1;
#X obj 106 517 s pd-sound_bank;
#X obj 125 301 % 5;
#X obj 125 398 *;
#X obj 125 359 t b f;
#X msg 125 378 80;
#X obj 125 419 + 20;
#X obj 163 301 % 5;
#X obj 163 320 sel 0;
#X obj 189 339 + 1;
#X obj 163 339 f 0;
#X obj 163 398 *;
#X obj 163 359 t b f;
#X obj 163 419 + 20;
#X msg 163 378 20;
#X obj 6 5 cnv 15 200 60 empty empty Dynamic_Patch_Creation 20 12 0
14 -233017 -66577 0;
#X obj 178 253 s onstart;
#N canvas 1190 22 250 110 speaker 0;
#X obj 3 63 send speaker_setup;
#X obj 3 24 bng 15 250 50 0 empty empty empty 17 7 0 10 -262144 -1
-1;
#X obj 3 4 inlet;
#X msg 3 42 define_loudspeakers 2 -135 -45 45 135;
#X connect 1 0 3 0;
#X connect 2 0 1 0;
#X connect 3 0 0 0;
#X restore 239 253 pd speaker setup;
#X obj 106 255 t f f f;
#X obj 178 223 sel 99;
#X obj 240 434 t b b;
#X msg 309 462 selectall;
#X msg 240 462 key 1 8 0;
#X text 34 29 Creates abstractions for;
#X text 34 45 sound_bank subpatch;
#X obj 106 92 route create;
#X text 227 224 Sound bank initialaztion completion check;
#X text 207 358 5 sounds per row;
#X obj 106 112 t b f b;
#X text 239 411 Deletes previous sound bank;
#X msg 145 132 1;
#X obj 106 234 f 1;
#X obj 106 186 t f f;
#X msg 178 202 \$1;
#X msg 74 93 1;
#X msg 175 132 0;
#X obj 63 544 PRINT;
#X obj 350 98 r onstart;
#X msg 350 120 \; pd dsp 1;
#X connect 0 0 37 0;
#X connect 1 0 36 0;
#X connect 2 0 36 1;
#X connect 3 0 30 0;
#X connect 4 0 5 0;
#X connect 4 0 38 0;
#X connect 4 0 41 0;
#X connect 5 0 6 0;
#X connect 7 0 9 0;
#X connect 8 0 11 0;
#X connect 9 0 10 0;
#X connect 9 1 8 1;
#X connect 10 0 8 0;
#X connect 11 0 4 1;
#X connect 12 0 13 0;
#X connect 13 0 15 0;
#X connect 14 0 15 1;
#X connect 15 0 14 0;
#X connect 15 0 17 0;
#X connect 16 0 18 0;
#X connect 17 0 19 0;
#X connect 17 1 16 1;
#X connect 18 0 4 2;
#X connect 19 0 16 0;
#X connect 23 0 4 0;
#X connect 23 1 7 0;
#X connect 23 2 12 0;
#X connect 24 0 22 0;
#X connect 24 0 21 0;
#X connect 25 0 27 0;
#X connect 25 1 26 0;
#X connect 26 0 6 0;
#X connect 27 0 6 0;
#X connect 30 0 33 0;
#X connect 33 0 0 0;
#X connect 33 1 0 1;
#X connect 33 2 35 0;
#X connect 33 2 25 0;
#X connect 33 2 40 0;
#X connect 35 0 36 1;
#X connect 36 0 2 0;
#X connect 36 0 23 0;
#X connect 37 0 1 0;
#X connect 37 1 24 1;
#X connect 38 0 24 0;
#X connect 39 0 33 0;
#X connect 40 0 15 1;
#X connect 42 0 43 0;
#X restore 248 56 pd create;
#X obj 4 3 cnv 15 210 89 empty empty touchTable3D 20 12 0 14 -233017
-66577 0;
#X text 33 22 Used in tandem with Unity3D.;
#X text 32 44 around the listener \, and;
#X text 32 33 Places sounds into a 2D field;
#X text 32 55 filters them. Implements VBAP.;
#X text 33 66 Meant for use with a multi-;
#X text 32 76 touch table environment;
#X text 6 94 UPGRADES: more ambient sound functionality;
#X text 6 111 TESTING:;
#X obj 65 163 snapshot~;
#X obj 65 184 PRINT;
#X obj 65 140 metro 100;
#X obj 64 119 tgl 15 0 empty empty empty 17 7 0 10 -262144 -1 -1 0
1;
#X obj 224 158 hsl 128 15 0 127 0 0 master_vol empty empty -2 -8 0
10 -262144 -1 -1 12700 1;
#X connect 14 0 15 0;
#X connect 16 0 14 0;
#X connect 17 0 16 0;
