#N canvas 845 311 450 300 10;
#X obj 51 163 !=;
#X obj 78 163 sel 0;
#X obj 24 188 spigot;
#X obj 24 141 t f f;
#X obj 85 135 tabread angle-delta;
#X obj 78 188 s reset-angle;
#X obj 85 96 r set-check;
#X obj 24 118 inlet;
#X obj 24 260 outlet;
#X obj 85 115 f \$1;
#X connect 0 0 1 0;
#X connect 0 0 2 1;
#X connect 1 0 5 0;
#X connect 2 0 8 0;
#X connect 3 0 2 0;
#X connect 3 1 0 0;
#X connect 4 0 0 1;
#X connect 6 0 9 0;
#X connect 7 0 3 0;
#X connect 9 0 4 0;
