#N canvas 2050 167 824 699 10;
#X obj 133 735 soundfiler;
#X obj 133 621 symbol;
#X obj 590 355 openpanel;
#X obj 590 329 bng 15 250 50 0 empty empty empty 17 7 0 10 -262144
-1 -1;
#X msg 133 715 read -resize \$1 \$2;
#X obj 196 670 symbol \$1;
#X obj 196 647 t b;
#X obj 133 694 list append;
#N canvas 0 22 1186 632 select-bank 0;
#X obj 55 73 inlet;
#X floatatom 55 99 5 0 0 0 - - -;
#X obj 383 526 outlet;
#X obj 55 433 symbol;
#X msg 55 184 AKWF_aguitar;
#X msg 55 206 AKWF_altosax;
#X msg 55 228 AKWF_birds;
#X msg 55 250 AKWF_bitreduced;
#X obj 600 545 symbol;
#X msg 55 314 AKWF_c604;
#X msg 55 336 AKWF_cello;
#X msg 263 169 AKWF_clavinet;
#X msg 263 191 AKWF_dbass;
#X obj 263 419 symbol;
#X msg 263 212 AKWF_distorted;
#X msg 263 233 AKWF_ebass;
#X msg 263 277 AKWF_eorgan;
#X msg 263 299 AKWF_epiano;
#X msg 263 321 AKWF_flute;
#X msg 263 343 AKWF_fmsynth;
#X msg 263 365 AKWF_granular;
#X msg 471 163 AKWF_hdrawn;
#X msg 471 185 AKWF_hvoice;
#X obj 471 448 symbol;
#X obj 884 403 symbol;
#X msg 471 206 AKWF_linear;
#X msg 471 229 AKWF_oboe;
#X msg 471 251 AKWF_oscchip;
#X msg 471 273 AKWF_overtone;
#X msg 471 295 AKWF_piano;
#X msg 471 317 AKWF_pluckalgo;
#X msg 471 339 AKWF_raw;
#X msg 680 241 AKWF_sinharm;
#X msg 680 343 AKWF_stringbox;
#X msg 710 563 AKWF_stereo;
#X msg 680 363 AKWF_symetric;
#X msg 884 185 AKWF_theremin;
#X msg 884 226 AKWF_vgame;
#X msg 884 330 AKWF_violin;
#X obj 55 127 sel 0 1 2 3 4 5 6 7 8 9;
#X obj 263 127 sel 10 11 12 13 14 15 16 17 18 19;
#X msg 55 164 AKWF;
#X msg 55 272 AKWF_blended;
#X msg 55 294 AKWF_perfectwaves;
#X obj 680 436 symbol;
#X msg 471 360 AKWF_saw;
#X msg 680 156 AKWF_sawbright;
#X msg 680 199 AKWF_sawrounded;
#X msg 680 220 AKWF_sin;
#X msg 680 281 AKWF_squ;
#X msg 884 205 AKWF_tri;
#X obj 471 127 sel 20 21 22 23 24 25 26 27 28 29;
#X obj 678 127 sel 30 31 32 33 34 35 36 37 38 39;
#X obj 884 127 sel 40 41 42 43 44 45 46 47 48 49;
#X msg 55 358 AKWF_clarinett;
#X msg 263 255 AKWF_eguitar;
#X msg 680 178 AKWF_gapsaw;
#X msg 680 261 AKWF_snippet;
#X msg 680 322 AKWF_rSymSqu;
#X msg 680 302 AKWF_rAsymSqu;
#X msg 884 248 AKWF_vgsaw;
#X msg 884 268 AKWF_vgsin;
#X msg 884 288 AKWF_vgsqu;
#X msg 884 309 AKWF_vgtri;
#X connect 0 0 1 0;
#X connect 1 0 39 0;
#X connect 3 0 2 0;
#X connect 4 0 3 0;
#X connect 5 0 3 0;
#X connect 6 0 3 0;
#X connect 7 0 3 0;
#X connect 8 0 2 0;
#X connect 9 0 3 0;
#X connect 10 0 3 0;
#X connect 11 0 13 0;
#X connect 12 0 13 0;
#X connect 13 0 2 0;
#X connect 14 0 13 0;
#X connect 15 0 13 0;
#X connect 16 0 13 0;
#X connect 17 0 13 0;
#X connect 18 0 13 0;
#X connect 19 0 13 0;
#X connect 20 0 13 0;
#X connect 21 0 23 0;
#X connect 22 0 23 0;
#X connect 23 0 2 0;
#X connect 24 0 2 0;
#X connect 25 0 23 0;
#X connect 26 0 23 0;
#X connect 27 0 23 0;
#X connect 28 0 23 0;
#X connect 29 0 23 0;
#X connect 30 0 23 0;
#X connect 31 0 23 0;
#X connect 32 0 44 0;
#X connect 33 0 44 0;
#X connect 35 0 44 0;
#X connect 36 0 24 0;
#X connect 37 0 24 0;
#X connect 38 0 24 0;
#X connect 39 0 41 0;
#X connect 39 1 4 0;
#X connect 39 2 5 0;
#X connect 39 3 6 0;
#X connect 39 4 7 0;
#X connect 39 5 42 0;
#X connect 39 6 43 0;
#X connect 39 7 9 0;
#X connect 39 8 10 0;
#X connect 39 9 54 0;
#X connect 39 10 40 0;
#X connect 40 0 11 0;
#X connect 40 1 12 0;
#X connect 40 2 14 0;
#X connect 40 3 15 0;
#X connect 40 4 55 0;
#X connect 40 5 16 0;
#X connect 40 6 17 0;
#X connect 40 7 18 0;
#X connect 40 8 19 0;
#X connect 40 9 20 0;
#X connect 40 10 51 0;
#X connect 41 0 3 0;
#X connect 42 0 3 0;
#X connect 43 0 3 0;
#X connect 44 0 2 0;
#X connect 45 0 23 0;
#X connect 46 0 44 0;
#X connect 47 0 44 0;
#X connect 48 0 44 0;
#X connect 49 0 44 0;
#X connect 50 0 24 0;
#X connect 51 0 21 0;
#X connect 51 1 22 0;
#X connect 51 2 25 0;
#X connect 51 3 26 0;
#X connect 51 4 27 0;
#X connect 51 5 28 0;
#X connect 51 6 29 0;
#X connect 51 7 30 0;
#X connect 51 8 31 0;
#X connect 51 9 45 0;
#X connect 51 10 52 0;
#X connect 52 0 46 0;
#X connect 52 1 56 0;
#X connect 52 2 48 0;
#X connect 52 3 32 0;
#X connect 52 4 57 0;
#X connect 52 5 49 0;
#X connect 52 6 59 0;
#X connect 52 7 58 0;
#X connect 52 8 33 0;
#X connect 52 9 35 0;
#X connect 52 10 53 0;
#X connect 53 0 36 0;
#X connect 53 1 50 0;
#X connect 53 2 37 0;
#X connect 53 3 60 0;
#X connect 53 4 61 0;
#X connect 53 5 62 0;
#X connect 53 6 63 0;
#X connect 53 7 38 0;
#X connect 54 0 3 0;
#X connect 55 0 13 0;
#X connect 56 0 44 0;
#X connect 57 0 44 0;
#X connect 58 0 44 0;
#X connect 59 0 44 0;
#X connect 60 0 24 0;
#X connect 61 0 24 0;
#X connect 62 0 24 0;
#X connect 63 0 24 0;
#X restore 408 133 pd select-bank;
#X obj 213 415 list append;
#X msg 408 616 set \$1;
#X msg 408 644 AKWF_sinharm;
#X obj 406 702 outlet;
#X text 104 118 bank;
#X text 104 138 wave;
#X obj 138 12 r loader-\$1;
#X obj 133 372 moses 10;
#X obj 133 415 list append;
#X obj 196 373 moses 100;
#X obj 288 415 list append;
#X obj 361 415 list append;
#X obj 258 373 moses 1000;
#X obj 103 159 cnv 15 100 20 empty \$1-bankname AKWF_sinharm 2 12 0
10 -233017 -1 0;
#X obj 563 191 symbol \$1;
#X obj 563 168 t b;
#X obj 563 221 list append;
#X msg 563 246 \; \$1-bankname label \$2;
#X obj 171 141 bng 12 250 50 0 empty empty + 3 5 0 12 -262144 -1 -1
;
#X msg 284 151 1;
#X msg 318 151 -1;
#X obj 305 176 +;
#X floatatom 134 139 5 0 0 0 - - -;
#X obj 187 141 bng 12 250 50 0 empty empty - 3 5 0 12 -262144 -1 -1
;
#X obj 171 121 bng 12 250 50 0 empty empty + 3 5 0 12 -262144 -1 -1
;
#X msg 296 83 1;
#X msg 330 83 -1;
#X obj 317 108 +;
#X floatatom 134 119 5 0 0 0 - - -;
#X obj 187 121 bng 12 250 50 0 empty empty - 3 5 0 12 -262144 -1 -1
;
#X obj 231 16 loadbang;
#X msg 133 446 ../wavetable-cycles/\$2/\$2_000\$1.wav;
#X msg 213 466 ../wavetable-cycles/\$2/\$2_00\$1.wav;
#X msg 288 486 ../wavetable-cycles/\$2/\$2_0\$1.wav;
#X msg 361 506 ../wavetable-cycles/\$2/\$2_\$1.wav;
#N canvas 0 22 450 300 (subpatch) 0;
#X array \$1 600 float 2;
#X coords 0 1 600 -1 150 100 1;
#X restore 104 200 graph;
#X msg 231 43 1 1;
#X obj 138 40 t l l;
#X msg 172 74 \$1;
#X msg 80 72 \$2;
#X connect 1 0 7 0;
#X connect 1 0 6 0;
#X connect 2 0 1 0;
#X connect 3 0 2 0;
#X connect 4 0 0 0;
#X connect 5 0 7 1;
#X connect 6 0 5 0;
#X connect 7 0 4 0;
#X connect 8 0 9 1;
#X connect 8 0 10 0;
#X connect 8 0 17 1;
#X connect 8 0 19 1;
#X connect 8 0 20 1;
#X connect 8 0 25 1;
#X connect 8 0 24 0;
#X connect 9 0 41 0;
#X connect 10 0 11 0;
#X connect 10 0 12 0;
#X connect 15 0 46 0;
#X connect 16 0 17 0;
#X connect 16 1 18 0;
#X connect 17 0 40 0;
#X connect 18 0 9 0;
#X connect 18 1 21 0;
#X connect 19 0 42 0;
#X connect 20 0 43 0;
#X connect 21 0 19 0;
#X connect 21 1 20 0;
#X connect 23 0 25 0;
#X connect 24 0 23 0;
#X connect 25 0 26 0;
#X connect 27 0 28 0;
#X connect 28 0 30 0;
#X connect 29 0 30 0;
#X connect 30 0 31 0;
#X connect 31 0 30 1;
#X connect 31 0 16 0;
#X connect 32 0 29 0;
#X connect 33 0 34 0;
#X connect 34 0 36 0;
#X connect 35 0 36 0;
#X connect 36 0 37 0;
#X connect 37 0 36 1;
#X connect 37 0 8 0;
#X connect 38 0 35 0;
#X connect 39 0 45 0;
#X connect 40 0 1 0;
#X connect 41 0 1 0;
#X connect 42 0 1 0;
#X connect 43 0 1 0;
#X connect 45 0 46 0;
#X connect 46 0 48 0;
#X connect 46 1 47 0;
#X connect 47 0 37 0;
#X connect 48 0 31 0;
#X coords 0 -1 1 1 158 206 1 100 100;
