#N canvas 569 26 618 799 10;
#X obj 105 292 vbap 0 0;
#X obj 119 226 t b f;
#X obj 46 235 t b f;
#X obj 105 323 route 0 1 2 3 4 5 6 7 8;
#X obj 105 359 vsl 15 128 0 1 0 0 empty empty empty 0 -9 0 10 -262144
-1 -1 1042 1;
#X obj 124 359 vsl 15 128 0 1 0 0 empty empty empty 0 -9 0 10 -262144
-1 -1 0 1;
#X obj 143 359 vsl 15 128 0 1 0 0 empty empty empty 0 -9 0 10 -262144
-1 -1 0 1;
#X obj 162 359 vsl 15 128 0 1 0 0 empty empty empty 0 -9 0 10 -262144
-1 -1 0 1;
#X obj 181 359 vsl 15 128 0 1 0 0 empty empty empty 0 -9 0 10 -262144
-1 -1 0 1;
#X obj 200 359 vsl 15 128 0 1 0 0 empty empty empty 0 -9 0 10 -262144
-1 -1 0 1;
#X obj 219 359 vsl 15 128 0 1 0 0 empty empty empty 0 -9 0 10 -262144
-1 -1 5226 1;
#X obj 238 359 vsl 15 128 0 1 0 0 empty empty empty 0 -9 0 10 -262144
-1 -1 11528 1;
#X floatatom 104 138 5 0 0 0 - - -;
#X floatatom 104 156 5 0 0 0 - - -;
#X obj 246 190 receive speaker_setup;
#X obj 246 211 r elevation;
#X obj 30 644 *~;
#X obj 45 621 line~;
#X msg 105 496 \$1 50;
#X msg 123 515 \$1 50;
#X msg 143 536 \$1 50;
#X msg 162 557 \$1 50;
#X msg 180 496 \$1 50;
#X msg 200 516 \$1 50;
#X msg 219 538 \$1 50;
#X msg 237 557 \$1 50;
#X obj 30 671 *~;
#X obj 30 696 throw~ ch1;
#X obj 62 769 *~;
#X obj 77 746 line~;
#X obj 62 796 *~;
#X obj 121 643 *~;
#X obj 136 620 line~;
#X obj 121 670 *~;
#X obj 153 768 *~;
#X obj 168 745 line~;
#X obj 153 795 *~;
#X obj 223 643 *~;
#X obj 238 620 line~;
#X obj 223 670 *~;
#X obj 252 768 *~;
#X obj 267 745 line~;
#X obj 252 795 *~;
#X obj 306 642 *~;
#X obj 321 619 line~;
#X obj 306 669 *~;
#X obj 335 767 *~;
#X obj 350 744 line~;
#X obj 335 794 *~;
#X obj 70 821 throw~ ch2;
#X obj 121 695 throw~ ch3;
#X obj 152 818 throw~ ch4;
#X obj 223 695 throw~ ch5;
#X obj 252 820 throw~ ch6;
#X obj 306 694 throw~ ch7;
#X obj 335 819 throw~ ch8;
#X text 252 132 angle (location around audience);
#X text 251 145 spread (for "spreading" signal among speakers);
#X text 664 176 this is the signal It could be mic \, soundfile \,
oscillator \, noise....;
#X text 183 286 vbap translates the angle into the correct amplitudes
for each speaker;
#X floatatom 104 121 5 0 0 0 - - -;
#X msg 426 402 \$1 50;
#X obj 426 422 line~;
#X obj 426 382 dbtorms;
#X obj 7 536 inlet~;
#X obj 426 443 s~ vol-\$1;
#X obj 57 645 r~ vol-\$1;
#X obj 250 644 r~ vol-\$1;
#X obj 333 643 r~ vol-\$1;
#X obj 362 767 r~ vol-\$1;
#X obj 279 769 r~ vol-\$1;
#X obj 184 769 r~ vol-\$1;
#X obj 90 769 r~ vol-\$1;
#X text 138 138 angle;
#X text 138 155 spread;
#X text 138 120 volume;
#X obj 258 24 r angle-\$1;
#X obj 249 3 r vol-\$1;
#X obj 268 46 r spread-\$1;
#X obj 148 644 r~ vol-\$1;
#X msg 343 89 0 \, 75 2000;
#X msg 434 102 0 2000;
#X obj 436 73 del 47000;
#X obj 105 25 loadbang;
#X msg 105 58 25;
#X obj 193 43 * 100;
#X connect 0 0 3 0;
#X connect 1 0 0 0;
#X connect 1 1 0 3;
#X connect 2 0 0 0;
#X connect 2 1 0 1;
#X connect 3 0 4 0;
#X connect 3 1 5 0;
#X connect 3 2 6 0;
#X connect 3 3 7 0;
#X connect 3 4 8 0;
#X connect 3 5 9 0;
#X connect 3 6 10 0;
#X connect 3 7 11 0;
#X connect 4 0 18 0;
#X connect 5 0 19 0;
#X connect 6 0 20 0;
#X connect 7 0 21 0;
#X connect 8 0 22 0;
#X connect 9 0 23 0;
#X connect 10 0 24 0;
#X connect 11 0 25 0;
#X connect 12 0 2 0;
#X connect 13 0 1 0;
#X connect 14 0 0 0;
#X connect 15 0 0 2;
#X connect 16 0 26 0;
#X connect 17 0 16 1;
#X connect 18 0 17 0;
#X connect 19 0 29 0;
#X connect 20 0 32 0;
#X connect 21 0 35 0;
#X connect 22 0 38 0;
#X connect 23 0 41 0;
#X connect 24 0 44 0;
#X connect 25 0 47 0;
#X connect 26 0 27 0;
#X connect 28 0 30 0;
#X connect 29 0 28 1;
#X connect 30 0 49 0;
#X connect 31 0 33 0;
#X connect 32 0 31 1;
#X connect 33 0 50 0;
#X connect 34 0 36 0;
#X connect 35 0 34 1;
#X connect 36 0 51 0;
#X connect 37 0 39 0;
#X connect 38 0 37 1;
#X connect 39 0 52 0;
#X connect 40 0 42 0;
#X connect 41 0 40 1;
#X connect 42 0 53 0;
#X connect 43 0 45 0;
#X connect 44 0 43 1;
#X connect 45 0 54 0;
#X connect 46 0 48 0;
#X connect 47 0 46 1;
#X connect 48 0 55 0;
#X connect 60 0 63 0;
#X connect 61 0 62 0;
#X connect 62 0 65 0;
#X connect 63 0 61 0;
#X connect 64 0 16 0;
#X connect 64 0 31 0;
#X connect 64 0 37 0;
#X connect 64 0 43 0;
#X connect 64 0 28 0;
#X connect 64 0 34 0;
#X connect 64 0 40 0;
#X connect 64 0 46 0;
#X connect 66 0 26 1;
#X connect 67 0 39 1;
#X connect 68 0 45 1;
#X connect 69 0 48 1;
#X connect 70 0 42 1;
#X connect 71 0 36 1;
#X connect 72 0 30 1;
#X connect 76 0 12 0;
#X connect 77 0 85 0;
#X connect 78 0 13 0;
#X connect 79 0 33 1;
#X connect 80 0 60 0;
#X connect 81 0 60 0;
#X connect 82 0 81 0;
#X connect 83 0 84 0;
#X connect 84 0 13 0;
#X connect 85 0 60 0;
#X coords 0 -1 1 1 80 76 1 100 100;
