#N canvas 754 156 686 491 10;
#X obj 221 228 vbap 0 0;
#X obj 221 250 route 0 1 2 3;
#X obj 221 28 receive speaker_setup;
#X obj 56 414 throw~ ch1;
#X obj 71 373 line~;
#X msg 71 353 \$1 50;
#X obj 56 394 *~;
#X obj 139 373 line~;
#X msg 139 353 \$1 50;
#X obj 124 394 *~;
#X obj 208 373 line~;
#X msg 208 353 \$1 50;
#X obj 193 394 *~;
#X obj 277 373 line~;
#X msg 277 353 \$1 50;
#X obj 262 394 *~;
#X obj 193 414 throw~ ch3;
#X obj 124 414 throw~ ch2;
#X obj 262 414 throw~ ch4;
#X obj 232 65 r \$0-angle;
#X obj 232 204 t b f;
#X obj 300 204 t b f;
#X text 398 291 vector based amplitude panning;
#X text 243 184 angle;
#X floatatom 391 216 5 0 0 0 - - -;
#X floatatom 364 243 5 0 0 0 - - -;
#X obj 300 66 r \$0-spread;
#X obj 232 167 inlet;
#X obj 300 167 inlet;
#X obj 445 67 r debug-mode;
#X obj 14 113 spigot~;
#X obj 14 93 inlet~;
#X obj 57 71 r debug-mode;
#X obj 115 182 throw~ test;
#X obj 87 327 +~ 0;
#X obj 117 327 +~ 0;
#X obj 147 327 +~ 0;
#X obj 177 327 +~ 0;
#X obj 115 160 +~;
#X obj 123 128 rev3~ 90 90 3000 33;
#X obj 121 96 tgl 15 0 empty empty empty 17 7 0 10 -262144 -1 -1 1
1;
#X connect 0 0 1 0;
#X connect 1 0 5 0;
#X connect 1 1 8 0;
#X connect 1 2 11 0;
#X connect 1 3 14 0;
#X connect 2 0 0 0;
#X connect 4 0 6 1;
#X connect 5 0 4 0;
#X connect 6 0 3 0;
#X connect 7 0 9 1;
#X connect 8 0 7 0;
#X connect 9 0 17 0;
#X connect 10 0 12 1;
#X connect 11 0 10 0;
#X connect 12 0 16 0;
#X connect 13 0 15 1;
#X connect 14 0 13 0;
#X connect 15 0 18 0;
#X connect 20 0 0 0;
#X connect 20 1 0 1;
#X connect 21 0 0 0;
#X connect 21 1 0 3;
#X connect 24 0 21 0;
#X connect 25 0 20 0;
#X connect 27 0 20 0;
#X connect 28 0 21 0;
#X connect 30 0 34 0;
#X connect 30 0 35 0;
#X connect 30 0 36 0;
#X connect 30 0 37 0;
#X connect 30 1 39 0;
#X connect 30 1 38 0;
#X connect 31 0 30 0;
#X connect 32 0 40 0;
#X connect 32 0 30 1;
#X connect 34 0 6 0;
#X connect 35 0 9 0;
#X connect 36 0 12 0;
#X connect 37 0 15 0;
#X connect 38 0 33 0;
#X connect 39 0 38 1;
