#N canvas 161 173 1005 872 10;
#X obj 305 13 inlet;
#X obj 348 13 inlet;
#X obj 403 13 inlet;
#X obj 446 13 inlet;
#X obj 102 8 inlet;
#X obj 621 13 loadbang;
#X obj 636 92 f \$2;
#X obj 621 70 f \$1;
#X obj 621 34 t b b b b b b;
#X obj 651 118 f \$3;
#X obj 666 150 f \$4;
#X obj 681 174 f \$5;
#X obj 25 383 cos;
#X obj 25 340 line;
#X obj 278 482 *;
#X floatatom 278 530 5 0 0 0 - - -;
#X obj 278 506 + 100;
#X obj 25 362 * 6.2824;
#X floatatom 288 98 5 0 0 0 - - -;
#X text 180 92 comment;
#X obj 293 341 random;
#X obj 326 312 * 100;
#X obj 293 365 / 100;
#X text 303 -9 size;
#X text 346 -9 size r;
#X text 402 -7 speed;
#X text 444 -8 speed r;
#X text 661 70 center point;
#X text 672 91 +/- range;
#X text 683 118 range rand;
#X obj 293 441 +;
#X obj 293 417 line;
#X obj 293 390 pack f f;
#X obj 338 367 * 0.25;
#X obj 243 200 +;
#X text 700 152 speed;
#X obj 243 99 random;
#X obj 276 70 * 100;
#X obj 243 123 / 100;
#X obj 243 175 line;
#X obj 243 148 pack f f;
#X obj 288 125 * 0.25;
#X obj 124 254 t b b;
#X text 712 172 rand speed;
#X obj 336 663 outlet;
#X obj -10 203 del;
#X obj 30 203 del;
#X obj -9 268 f;
#X msg -9 292 0 \, 0.5 \$1;
#X obj 59 268 f;
#X msg 59 292 0.5 \, 1 \$1;
#X floatatom 67 137 5 0 0 0 - - -;
#X floatatom 28 136 5 0 0 0 - - -;
#X obj -109 104 sel 0 1;
#X msg -110 129 stop;
#X obj -109 76 tgl 15 0 empty empty empty 17 7 0 10 -262144 -1 -1 1
1;
#X obj 119 516 t;
#X obj -98 221 t b b;
#X floatatom 245 238 5 0 0 0 - - -;
#X connect 0 0 16 1;
#X connect 1 0 21 0;
#X connect 2 0 18 0;
#X connect 2 0 34 1;
#X connect 2 0 51 0;
#X connect 2 0 52 0;
#X connect 3 0 37 0;
#X connect 4 0 55 0;
#X connect 5 0 8 0;
#X connect 6 0 14 1;
#X connect 6 0 30 1;
#X connect 7 0 16 1;
#X connect 8 0 7 0;
#X connect 8 1 6 0;
#X connect 8 2 9 0;
#X connect 8 3 10 0;
#X connect 8 4 11 0;
#X connect 9 0 21 0;
#X connect 10 0 18 0;
#X connect 10 0 34 1;
#X connect 10 0 51 0;
#X connect 10 0 52 0;
#X connect 11 0 37 0;
#X connect 12 0 14 0;
#X connect 13 0 17 0;
#X connect 14 0 15 0;
#X connect 14 0 16 0;
#X connect 16 0 44 0;
#X connect 17 0 12 0;
#X connect 18 0 33 0;
#X connect 18 0 41 0;
#X connect 20 0 22 0;
#X connect 21 0 20 1;
#X connect 22 0 32 0;
#X connect 30 0 14 1;
#X connect 31 0 30 0;
#X connect 32 0 31 0;
#X connect 33 0 32 1;
#X connect 34 0 51 0;
#X connect 34 0 52 0;
#X connect 34 0 58 0;
#X connect 36 0 38 0;
#X connect 37 0 36 1;
#X connect 38 0 40 0;
#X connect 39 0 34 0;
#X connect 40 0 39 0;
#X connect 41 0 40 1;
#X connect 42 0 20 0;
#X connect 42 1 36 0;
#X connect 45 0 47 0;
#X connect 45 0 46 0;
#X connect 45 0 42 0;
#X connect 46 0 49 0;
#X connect 46 0 45 0;
#X connect 46 0 42 0;
#X connect 47 0 48 0;
#X connect 48 0 13 0;
#X connect 49 0 50 0;
#X connect 50 0 13 0;
#X connect 51 0 45 1;
#X connect 51 0 49 1;
#X connect 52 0 47 1;
#X connect 52 0 46 1;
#X connect 53 0 54 0;
#X connect 53 1 57 0;
#X connect 54 0 45 0;
#X connect 54 0 46 0;
#X connect 55 0 53 0;
#X connect 57 0 46 0;
#X connect 57 1 47 0;
