#N canvas 2309 203 450 300 10;
#X obj 116 246 *~ 0.1;
#X obj 116 268 dac~;
#X obj 116 90 noise~;
#X floatatom 213 91 5 0 0 0 - - -;
#X obj 116 110 lop~ 24000;
#X obj 116 129 lop~ 24000;
#X obj 116 149 lop~ 24000;
#X obj 116 168 lop~ 24000;
#X obj 116 227 hip~ 3;
#X obj 119 201 lop~ 24000;
#X connect 0 0 1 0;
#X connect 0 0 1 1;
#X connect 2 0 4 0;
#X connect 3 0 4 1;
#X connect 3 0 5 1;
#X connect 3 0 6 1;
#X connect 3 0 7 1;
#X connect 3 0 9 1;
#X connect 4 0 5 0;
#X connect 5 0 6 0;
#X connect 6 0 7 0;
#X connect 7 0 9 0;
#X connect 8 0 0 0;
#X connect 9 0 8 0;
