#N canvas 147 130 152 220 10;
#X obj 22 124 output~;
#X obj 22 97 *~;
#X msg 37 55 \$1 50;
#X obj 37 76 line~;
#X obj 37 36 tgl 15 0 empty empty empty 17 7 0 10 -262144 -1 -1 0 1
;
#X obj 22 15 catch~ test;
#X connect 1 0 0 0;
#X connect 1 0 0 1;
#X connect 2 0 3 0;
#X connect 3 0 1 1;
#X connect 4 0 2 0;
#X connect 5 0 1 0;
