#N canvas 336 126 383 191 10;
#X declare -path ./abs;
#X declare -path ./abs;
#X declare -path ./externals;
#X obj 227 28 declare -path ./abs;
#N canvas 990 209 450 300 load 0;
#X obj 6 2 loadbang;
#X obj 45 43 s load1;
#X obj 6 22 t b b b;
#X obj 25 63 s load2;
#X obj 6 83 s load3;
#N canvas 1190 22 250 110 speaker 0;
#X obj 3 63 send speaker_setup;
#X obj 3 24 bng 15 250 50 0 empty empty empty 17 7 0 10 -262144 -1
-1;
#X obj 3 4 inlet;
#X msg 3 42 define_loudspeakers 2 -135 -45 45 135;
#X connect 1 0 3 0;
#X connect 2 0 1 0;
#X connect 3 0 0 0;
#X restore 10 270 pd speaker setup;
#X obj 10 210 r load1;
#X msg 113 257 \; pd dsp 1;
#X connect 0 0 2 0;
#X connect 2 0 4 0;
#X connect 2 1 3 0;
#X connect 2 2 1 0;
#X connect 6 0 5 0;
#X connect 6 0 7 0;
#X restore 34 28 pd load;
#N canvas 721 127 221 536 output 0;
#X obj 7 6 catch~ ch1;
#X obj 30 26 catch~ ch2;
#X obj 53 46 catch~ ch3;
#X obj 76 66 catch~ ch4;
#X obj 7 316 dac~ 1 2 3 4;
#X obj 110 244 +~;
#X obj 110 265 env~;
#X floatatom 110 286 5 0 0 0 - - -;
#X msg 110 305 out \$1;
#X obj 110 326 s touchsend;
#X obj 7 234 *~;
#X obj 30 254 *~;
#X obj 53 274 *~;
#X obj 76 294 *~;
#X obj 121 89 r masterVol;
#X obj 121 190 line~;
#X msg 121 170 \$1 50;
#X obj 120 109 / 127;
#X obj 121 150 dbtorms;
#X obj 120 129 * 100;
#X connect 0 0 5 0;
#X connect 0 0 10 0;
#X connect 1 0 5 0;
#X connect 1 0 11 0;
#X connect 2 0 5 0;
#X connect 2 0 12 0;
#X connect 3 0 5 0;
#X connect 3 0 13 0;
#X connect 5 0 6 0;
#X connect 6 0 7 0;
#X connect 7 0 8 0;
#X connect 8 0 9 0;
#X connect 10 0 4 0;
#X connect 11 0 4 1;
#X connect 12 0 4 2;
#X connect 13 0 4 3;
#X connect 14 0 17 0;
#X connect 15 0 13 1;
#X connect 15 0 12 1;
#X connect 15 0 11 1;
#X connect 15 0 10 1;
#X connect 16 0 15 0;
#X connect 17 0 19 0;
#X connect 18 0 16 0;
#X connect 19 0 18 0;
#X restore 95 28 pd output;
#X obj 34 47 grid+interpolators;
#N canvas 53 41 781 692 poly-synth 0;
#X obj 25 444 cup;
#N canvas 833 461 607 382 tables 0;
#N canvas 0 22 450 300 (subpatch) 0;
#X array scale 14 float 3;
#A 0 0 2 4 5 7 9 11 12 14 16 17 19 21 23;
#X coords 0 24 14 -1 200 140 1;
#X restore -42 103 graph;
#X msg -42 269 \; scale 0 0 2 4 5 7 9 11 12 14 16 17 19 21 23 24;
#X obj -42 248 r load1;
#N canvas 0 22 450 300 (subpatch) 0;
#X array melody 600 float 3;
#A 0 0.00302124 0.0143433 0.0255737 0.0366821 0.0477295 0.0586548 0.0695496
0.0802917 0.0909729 0.101562 0.112122 0.122559 0.132904 0.143188 0.153381
0.163483 0.173523 0.183472 0.193359 0.203125 0.212891 0.222534 0.232147
0.241608 0.251068 0.260437 0.269714 0.278992 0.288116 0.297241 0.306274
0.315216 0.324127 0.332947 0.341705 0.350403 0.35907 0.367645 0.37616
0.384613 0.393005 0.401367 0.409668 0.417847 0.426025 0.434113 0.442169
0.450195 0.45813 0.466003 0.473846 0.481628 0.489349 0.49704 0.504639
0.512207 0.519745 0.527222 0.534668 0.542023 0.549347 0.556641 0.563873
0.571014 0.578186 0.585266 0.592316 0.599274 0.606232 0.613129 0.619995
0.626831 0.633606 0.64035 0.647003 0.653656 0.660278 0.66684 0.67337
0.67984 0.686279 0.692688 0.699036 0.705353 0.71167 0.717926 0.724091
0.730286 0.73642 0.742493 0.748566 0.754608 0.76059 0.76651 0.77243
0.77832 0.78418 0.789978 0.795776 0.801514 0.80722 0.812927 0.818542
0.824158 0.829742 0.835297 0.84079 0.846313 0.851746 0.857178 0.862518
0.86792 0.87326 0.87854 0.88382 0.889069 0.894257 0.899445 0.904602
0.909698 0.914795 0.919891 0.924927 0.929932 0.934937 0.93988 0.944824
0.949738 0.95459 0.959473 0.964264 0.969116 0.973877 0.978638 0.983337
0.988037 0.992706 0.996399 0.998291 0.999298 0.999878 0.999969 0.999756
0.999237 0.998535 0.997589 0.996552 0.9953 0.993927 0.992401 0.990723
0.988922 0.986969 0.984894 0.982635 0.980316 0.977844 0.975281 0.972656
0.96994 0.967133 0.964233 0.961243 0.958191 0.955078 0.951874 0.948608
0.945282 0.941833 0.938354 0.934784 0.931152 0.927429 0.923645 0.9198
0.915894 0.911926 0.907867 0.903748 0.899597 0.895355 0.891052 0.886688
0.882263 0.877808 0.873291 0.868683 0.864014 0.859314 0.854553 0.849701
0.844849 0.839935 0.8349 0.829895 0.824799 0.819672 0.814453 0.809204
0.803894 0.798523 0.793121 0.787659 0.782196 0.776611 0.771027 0.76535
0.759674 0.753906 0.748108 0.742279 0.736389 0.730438 0.724426 0.718414
0.712341 0.706238 0.700043 0.693817 0.687561 0.681244 0.674896 0.668488
0.662048 0.655518 0.648956 0.642365 0.635742 0.629059 0.622314 0.61554
0.608704 0.601807 0.594879 0.587921 0.580902 0.573822 0.566711 0.55954
0.552307 0.545044 0.53775 0.530365 0.522949 0.515442 0.507904 0.500336
0.492706 0.485016 0.477295 0.469513 0.461639 0.453735 0.44577 0.437744
0.429688 0.42157 0.413361 0.405121 0.39679 0.388428 0.380005 0.371552
0.363007 0.35437 0.345734 0.337006 0.328186 0.319305 0.310394 0.301392
0.292328 0.283203 0.273987 0.26474 0.255402 0.246002 0.236511 0.226959
0.217377 0.207672 0.197876 0.18808 0.178131 0.168121 0.158051 0.147888
0.137665 0.12735 0.116974 0.106476 0.0959167 0.0852661 0.0745239 0.0637207
0.0528259 0.0418091 0.0307617 0.0195312 0.00830078 -0.00302124 -0.0143433
-0.0255737 -0.0366821 -0.0477295 -0.0586548 -0.0695496 -0.0802917 -0.0909729
-0.101562 -0.112122 -0.122559 -0.132904 -0.143188 -0.153381 -0.163483
-0.173523 -0.183472 -0.193359 -0.203125 -0.212891 -0.222534 -0.232147
-0.241608 -0.251068 -0.260437 -0.269714 -0.278992 -0.288116 -0.297241
-0.306274 -0.315216 -0.324127 -0.332947 -0.341705 -0.350403 -0.35907
-0.367645 -0.37616 -0.384613 -0.393005 -0.401367 -0.409668 -0.417847
-0.426025 -0.434113 -0.442169 -0.450195 -0.45813 -0.466003 -0.473846
-0.481628 -0.489349 -0.49704 -0.504639 -0.512207 -0.519745 -0.527222
-0.534668 -0.542023 -0.549347 -0.556641 -0.563873 -0.571014 -0.578186
-0.585266 -0.592316 -0.599274 -0.606232 -0.613129 -0.619995 -0.626831
-0.633606 -0.64035 -0.647003 -0.653656 -0.660278 -0.66684 -0.67337
-0.67984 -0.686279 -0.692688 -0.699036 -0.705353 -0.71167 -0.717926
-0.724091 -0.730286 -0.73642 -0.742493 -0.748566 -0.754608 -0.76059
-0.76651 -0.77243 -0.77832 -0.78418 -0.789978 -0.795776 -0.801514 -0.80722
-0.812927 -0.818542 -0.824158 -0.829742 -0.835297 -0.84079 -0.846313
-0.851746 -0.857178 -0.862518 -0.86792 -0.87326 -0.87854 -0.88382 -0.889069
-0.894257 -0.899445 -0.904602 -0.909698 -0.914795 -0.919891 -0.924927
-0.929932 -0.934937 -0.93988 -0.944824 -0.949738 -0.95459 -0.959473
-0.964264 -0.969116 -0.973877 -0.978638 -0.983337 -0.988037 -0.992706
-0.996399 -0.998291 -0.999298 -0.999878 -0.999969 -0.999756 -0.999237
-0.998535 -0.997589 -0.996552 -0.9953 -0.993927 -0.992401 -0.990723
-0.988922 -0.986969 -0.984894 -0.982635 -0.980316 -0.977844 -0.975281
-0.972656 -0.96994 -0.967133 -0.964233 -0.961243 -0.958191 -0.955078
-0.951874 -0.948608 -0.945282 -0.941833 -0.938354 -0.934784 -0.931152
-0.927429 -0.923645 -0.9198 -0.915894 -0.911926 -0.907867 -0.903748
-0.899597 -0.895355 -0.891052 -0.886688 -0.882263 -0.877808 -0.873291
-0.868683 -0.864014 -0.859314 -0.854553 -0.849701 -0.844849 -0.839935
-0.8349 -0.829895 -0.824799 -0.819672 -0.814453 -0.809204 -0.803894
-0.798523 -0.793121 -0.787659 -0.782196 -0.776611 -0.771027 -0.76535
-0.759674 -0.753906 -0.748108 -0.742279 -0.736389 -0.730438 -0.724426
-0.718414 -0.712341 -0.706238 -0.700043 -0.693817 -0.687561 -0.681244
-0.674896 -0.668488 -0.662048 -0.655518 -0.648956 -0.642365 -0.635742
-0.629059 -0.622314 -0.61554 -0.608704 -0.601807 -0.594879 -0.587921
-0.580902 -0.573822 -0.566711 -0.55954 -0.552307 -0.545044 -0.53775
-0.530365 -0.522949 -0.515442 -0.507904 -0.500336 -0.492706 -0.485016
-0.477295 -0.469513 -0.461639 -0.453735 -0.44577 -0.437744 -0.429688
-0.42157 -0.413361 -0.405121 -0.39679 -0.388428 -0.380005 -0.371552
-0.363007 -0.35437 -0.345734 -0.337006 -0.328186 -0.319305 -0.310394
-0.301392 -0.292328 -0.283203 -0.273987 -0.26474 -0.255402 -0.246002
-0.236511 -0.226959 -0.217377 -0.207672 -0.197876 -0.18808 -0.178131
-0.168121 -0.158051 -0.147888 -0.137665 -0.12735 -0.116974 -0.106476
-0.0959167 -0.0852661 -0.0745239 -0.0637207 -0.0528259 -0.0418091 -0.0307617
-0.0195312 -0.00830078;
#X coords 0 1 600 -1 150 100 1;
#X restore 173 101 graph;
#X connect 2 0 1 0;
#X restore 425 135 pd tables;
#X obj 25 334 t b f;
#X obj 25 59 metro 1000;
#X obj 25 79 t b b;
#X msg 25 39 1;
#X obj 25 20 r load2;
#N canvas 45 53 443 569 rand-note 0;
#X obj -8 5 inlet;
#X obj -8 546 outlet;
#X obj -8 67 moses 75;
#X obj -8 108 random 2;
#X obj -8 26 random 101;
#X obj -8 128 sel 0 1;
#X msg 31 200 0;
#X obj -8 159 random 6;
#X obj -8 89 bng 15 250 50 0 empty empty empty 17 7 0 10 -262144 -1
-1;
#X msg 11 225 14;
#X msg -8 248 7;
#X obj 132 180 bng 15 250 50 0 empty empty empty 17 7 0 10 -262144
-1 -1;
#X obj 260 272 bng 15 250 50 0 empty empty empty 17 7 0 10 -262144
-1 -1;
#X obj -8 180 sel 0 1 2;
#X msg 91 200 4;
#X msg 52 248 11;
#X obj 132 159 moses 90;
#X obj 260 250 moses 100;
#X obj 132 199 random 2;
#X obj 132 219 sel 0 1;
#X msg 171 291 2;
#X msg 132 339 9;
#X msg 231 291 5;
#X msg 192 339 12;
#X obj 260 291 random 2;
#X obj 260 311 sel 0 1;
#X obj 320 363 sel 0 1;
#X obj 260 342 random 3;
#X obj 320 342 random 3;
#X obj 260 363 sel 0;
#X obj 132 271 sel 0;
#X obj 192 271 sel 0;
#X obj 192 250 random 3;
#X obj 132 250 random 3;
#X obj 52 180 sel 0;
#X obj 52 159 random 3;
#X msg 287 383 3;
#X msg 260 431 10;
#X msg 359 383 6;
#X msg 320 431 13;
#X obj -8 505 +;
#X obj -8 526 tabread scale;
#X obj 55 370 random 10;
#X obj 55 390 sel 0 1 2 3 4 5;
#X msg 55 413 5;
#X msg 98 413 4;
#X msg 128 413 7;
#X obj -8 47 t f b;
#X connect 0 0 4 0;
#X connect 2 0 8 0;
#X connect 2 1 16 0;
#X connect 3 0 5 0;
#X connect 4 0 47 0;
#X connect 5 0 7 0;
#X connect 5 1 35 0;
#X connect 6 0 40 0;
#X connect 7 0 13 0;
#X connect 8 0 3 0;
#X connect 9 0 40 0;
#X connect 10 0 40 0;
#X connect 11 0 18 0;
#X connect 12 0 24 0;
#X connect 13 0 10 0;
#X connect 13 1 10 0;
#X connect 13 2 9 0;
#X connect 13 3 6 0;
#X connect 14 0 40 0;
#X connect 15 0 40 0;
#X connect 16 0 11 0;
#X connect 16 1 17 0;
#X connect 17 0 12 0;
#X connect 18 0 19 0;
#X connect 19 0 33 0;
#X connect 19 1 32 0;
#X connect 20 0 40 0;
#X connect 21 0 40 0;
#X connect 22 0 40 0;
#X connect 23 0 40 0;
#X connect 24 0 25 0;
#X connect 25 0 27 0;
#X connect 25 1 28 0;
#X connect 26 0 39 0;
#X connect 26 1 39 0;
#X connect 26 2 38 0;
#X connect 27 0 29 0;
#X connect 28 0 26 0;
#X connect 29 0 37 0;
#X connect 29 1 36 0;
#X connect 30 0 21 0;
#X connect 30 1 20 0;
#X connect 31 0 23 0;
#X connect 31 1 22 0;
#X connect 32 0 31 0;
#X connect 33 0 30 0;
#X connect 34 0 15 0;
#X connect 34 1 14 0;
#X connect 35 0 34 0;
#X connect 36 0 40 0;
#X connect 37 0 40 0;
#X connect 38 0 40 0;
#X connect 39 0 40 0;
#X connect 40 0 41 0;
#X connect 41 0 1 0;
#X connect 42 0 43 0;
#X connect 43 0 44 0;
#X connect 43 1 44 0;
#X connect 43 2 44 0;
#X connect 43 3 45 0;
#X connect 43 4 45 0;
#X connect 43 5 46 0;
#X connect 44 0 40 1;
#X connect 45 0 40 1;
#X connect 46 0 40 1;
#X connect 47 0 2 0;
#X connect 47 1 42 0;
#X restore 25 313 pd rand-note;
#N canvas 1282 111 158 112 rand-vol 0;
#X obj 26 16 inlet;
#X obj 26 77 outlet;
#X obj 26 36 random 50;
#X obj 26 56 + 50;
#X connect 0 0 2 0;
#X connect 2 0 3 0;
#X connect 3 0 1 0;
#X restore 39 293 pd rand-vol;
#X msg 425 155 note \, vol \, length \, angle \, spread \, lop \, hip
;
#N canvas 988 133 138 140 rand-len 0;
#X obj 16 22 inlet;
#X obj 16 82 outlet;
#X obj 16 62 + 200;
#X obj 16 42 random 300;
#X connect 0 0 3 0;
#X connect 2 0 1 0;
#X connect 3 0 2 0;
#X restore 53 273 pd rand-len;
#X obj 25 464 % 30;
#X obj 25 504 route 0 1 2 3 4 5 6 7 8 9;
#X obj 245 504 route 10 11 12 13 14 15 16 17 18 19;
#X obj 465 504 route 20 21 22 23 24 25 26 27 28 29;
#N canvas 2566 123 183 126 rand-spread 0;
#X obj 20 22 inlet;
#X obj 20 81 outlet;
#X obj 20 42 random 35;
#X obj 20 62 + 10;
#X connect 0 0 2 0;
#X connect 2 0 3 0;
#X connect 3 0 1 0;
#X restore 81 234 pd rand-spread;
#N canvas 2571 179 450 300 rand-lop 0;
#X obj 10 3 inlet;
#X obj 10 63 outlet;
#X obj 10 23 random 10000;
#X obj 10 43 + 4000;
#X connect 0 0 2 0;
#X connect 2 0 3 0;
#X connect 3 0 1 0;
#X restore 95 214 pd rand-lop;
#N canvas 2564 123 162 171 rand-hip 0;
#X obj 40 50 inlet;
#X obj 40 110 outlet;
#X obj 40 70 random 300;
#X obj 40 90 + 3;
#X connect 0 0 2 0;
#X connect 2 0 3 0;
#X connect 3 0 1 0;
#X restore 109 193 pd rand-hip;
#X obj 25 484 pack f f f f f f f f;
#X msg 56 39 0;
#X obj 363 51 r load3;
#X obj 363 91 s debug-mode;
#X obj 75 20 r debug-mode;
#X msg 363 71 0;
#X msg 393 71 1;
#X floatatom 166 454 5 0 0 0 - - -;
#X obj 91 464 * 36;
#N canvas 64 52 710 702 play 0;
#X floatatom 131 312 5 0 0 0 - - -;
#X obj 131 368 phasor~;
#X obj 131 330 mtof;
#X obj 131 349 +~;
#X obj 131 387 *~ 599;
#X obj 131 457 *~;
#X msg 131 273 \$1 50;
#X obj 131 292 line;
#X obj 131 615 throw~ test;
#X obj 248 334 hsl 128 15 0 127 0 0 empty empty empty -2 -8 0 10 -262144
-1 -1 0 1;
#X obj 245 351 / 127;
#X obj 245 370 * 100;
#X obj 245 389 dbtorms;
#X obj 245 427 line~;
#X msg 245 408 \$1 50;
#X obj 245 298 line;
#X obj 278 314 sel 127;
#X obj 131 504 +~;
#X obj 146 484 rev3~ 97 95 3000 33;
#X msg 328 263 0 100;
#X obj 245 197 bng 15 250 50 0 empty empty empty 17 7 0 10 -262144
-1 -1;
#X obj 334 301 del 1000;
#X obj 131 406 tabread4~ melody;
#X obj 43 62 inlet;
#X obj 131 254 t f b;
#X obj 131 524 *~ 0.1;
#X obj 43 82 + 76;
#X obj 58 103 > 88;
#X obj 43 144 -;
#X obj 58 124 * 12;
#X obj 278 195 == 0;
#X obj 245 215 spigot;
#X obj 146 110 tabread scale;
#X obj 146 90 r scaleNote;
#X obj 179 50 r debug-mode;
#X obj 146 152 spigot;
#X obj 43 164 spigot;
#X obj 179 132 == 0;
#X obj 131 232 f;
#X obj 131 214 bng 15 250 50 0 empty empty empty 17 7 0 10 -262144
-1 -1;
#X obj 450 135 r melAmp;
#X obj 245 257 f;
#X obj 426 220 random 4;
#X obj 426 241 sel 1;
#X obj 501 286 bng 15 250 50 0 empty empty empty 17 7 0 10 -262144
-1 -1;
#X floatatom 501 242 5 0 0 0 - - -;
#X obj 426 261 del 3200;
#X obj 278 92 sel 1;
#X floatatom 353 93 5 0 0 0 - - -;
#X obj 278 71 random 5;
#X obj 278 112 del 300;
#X obj 288 132 del 400;
#X obj 301 160 del 800;
#X obj 410 76 random 500;
#X obj 400 57 t b b;
#X obj 420 96 random 500;
#X obj 430 116 random 500;
#X obj 226 152 t b b;
#X obj 366 151 + 800;
#X obj 345 121 + 400;
#X obj 378 94 + 300;
#X obj 330 233 spigot;
#X msg 389 261 0;
#X msg 399 297 1;
#X obj 386 193 spigot;
#X msg 492 205 1;
#X obj 261 176 t b b;
#X obj 459 311 r fieldX;
#X obj 481 349 r fieldY;
#X obj 459 391 cart2pol;
#X obj 432 445 vbap 0 0;
#X obj 432 467 route 0 1 2 3;
#X obj 267 631 throw~ ch1;
#X obj 282 590 line~;
#X msg 282 570 \$1 50;
#X obj 267 611 *~;
#X obj 350 590 line~;
#X msg 350 570 \$1 50;
#X obj 335 611 *~;
#X obj 419 590 line~;
#X msg 419 570 \$1 50;
#X obj 404 611 *~;
#X obj 488 590 line~;
#X msg 488 570 \$1 50;
#X obj 473 611 *~;
#X obj 404 631 throw~ ch3;
#X obj 335 631 throw~ ch2;
#X obj 473 631 throw~ ch4;
#X obj 131 572 spigot~;
#X obj 537 316 receive speaker_setup;
#X obj 521 370 r load1;
#X msg 521 393 25;
#X obj 174 524 r debug-mode;
#X obj 174 545 != 0;
#X obj 450 154 / 100;
#X obj 450 174 * 127;
#X msg 245 277 0 \, \$1 700;
#X connect 0 0 2 0;
#X connect 1 0 4 0;
#X connect 2 0 3 0;
#X connect 3 0 1 0;
#X connect 4 0 22 0;
#X connect 5 0 17 0;
#X connect 5 0 18 0;
#X connect 6 0 7 0;
#X connect 7 0 0 0;
#X connect 9 0 10 0;
#X connect 9 0 30 0;
#X connect 10 0 11 0;
#X connect 11 0 12 0;
#X connect 12 0 14 0;
#X connect 13 0 5 1;
#X connect 14 0 13 0;
#X connect 15 0 9 0;
#X connect 15 0 16 0;
#X connect 16 0 21 0;
#X connect 17 0 25 0;
#X connect 18 0 17 1;
#X connect 19 0 15 0;
#X connect 20 0 31 0;
#X connect 20 0 66 0;
#X connect 21 0 61 0;
#X connect 22 0 5 0;
#X connect 23 0 26 0;
#X connect 23 0 39 0;
#X connect 24 0 6 0;
#X connect 24 1 20 0;
#X connect 25 0 88 0;
#X connect 26 0 27 0;
#X connect 26 0 28 0;
#X connect 27 0 29 0;
#X connect 28 0 36 0;
#X connect 29 0 28 1;
#X connect 30 0 31 1;
#X connect 31 0 41 0;
#X connect 32 0 35 0;
#X connect 33 0 32 0;
#X connect 34 0 36 1;
#X connect 34 0 37 0;
#X connect 35 0 38 1;
#X connect 36 0 24 0;
#X connect 37 0 35 1;
#X connect 38 0 24 0;
#X connect 39 0 38 0;
#X connect 40 0 94 0;
#X connect 41 0 96 0;
#X connect 42 0 43 0;
#X connect 42 0 45 0;
#X connect 43 0 46 0;
#X connect 43 0 62 0;
#X connect 43 1 65 0;
#X connect 46 0 44 0;
#X connect 46 0 63 0;
#X connect 46 0 21 0;
#X connect 47 0 54 0;
#X connect 47 0 62 0;
#X connect 47 1 64 0;
#X connect 49 0 47 0;
#X connect 49 0 48 0;
#X connect 50 0 51 0;
#X connect 50 0 57 0;
#X connect 51 0 52 0;
#X connect 51 0 57 0;
#X connect 52 0 57 0;
#X connect 52 0 63 0;
#X connect 53 0 60 0;
#X connect 54 0 50 0;
#X connect 54 1 53 0;
#X connect 54 1 55 0;
#X connect 54 1 56 0;
#X connect 55 0 58 0;
#X connect 56 0 59 0;
#X connect 57 0 41 0;
#X connect 57 1 39 0;
#X connect 58 0 52 1;
#X connect 59 0 51 1;
#X connect 60 0 50 1;
#X connect 61 0 19 0;
#X connect 62 0 61 1;
#X connect 62 0 64 1;
#X connect 63 0 61 1;
#X connect 64 0 63 0;
#X connect 65 0 64 1;
#X connect 66 0 49 0;
#X connect 66 1 42 0;
#X connect 67 0 69 0;
#X connect 68 0 69 1;
#X connect 69 1 70 1;
#X connect 70 0 71 0;
#X connect 71 0 74 0;
#X connect 71 1 77 0;
#X connect 71 2 80 0;
#X connect 71 3 83 0;
#X connect 73 0 75 1;
#X connect 74 0 73 0;
#X connect 75 0 72 0;
#X connect 76 0 78 1;
#X connect 77 0 76 0;
#X connect 78 0 86 0;
#X connect 79 0 81 1;
#X connect 80 0 79 0;
#X connect 81 0 85 0;
#X connect 82 0 84 1;
#X connect 83 0 82 0;
#X connect 84 0 87 0;
#X connect 88 0 8 0;
#X connect 88 1 75 0;
#X connect 88 1 78 0;
#X connect 88 1 81 0;
#X connect 88 1 84 0;
#X connect 89 0 70 0;
#X connect 90 0 91 0;
#X connect 91 0 70 3;
#X connect 92 0 93 0;
#X connect 93 0 88 1;
#X connect 94 0 95 0;
#X connect 95 0 41 1;
#X connect 96 0 15 0;
#X restore 189 429 pd play melody;
#X obj 25 139 t b b b b b b b b;
#N canvas 573 41 703 540 ride 0;
#X msg 349 257 read -resize /Users/ericbohanon/Desktop/RHC/TD3D/sfs/ride.wav
ride;
#N canvas 0 22 450 300 (subpatch) 0;
#X array ride 191759 float 2;
#X coords 0 1 191759 -1 200 140 1;
#X restore 347 92 graph;
#X obj 349 292 soundfiler;
#X obj 349 235 r load1;
#X floatatom 349 332 5 0 0 0 - - -;
#X obj 349 312 / 48;
#X obj 349 352 s ride-length;
#X obj 95 302 r ride-length;
#X obj 38 323 pack 0 f f;
#X obj 386 330 s ride-size;
#X obj 66 280 r ride-size;
#X obj 38 210 bng 15 250 50 0 empty empty empty 17 7 0 10 -262144 -1
-1;
#X obj 38 365 line~;
#X msg 38 344 \$1 \, \$2 \$3;
#X obj 38 478 throw~ test;
#X obj 38 386 tabread4~ ride;
#X obj 38 457 *~;
#X obj 53 437 line~;
#X obj 38 228 t b b;
#X obj 184 340 dbtorms;
#X msg 184 361 \$1 50;
#X obj 184 320 + 85;
#X obj 184 300 random 15;
#X floatatom 114 104 5 0 0 0 - - -;
#X obj 101 54 expr 60000 / $f1;
#X obj 38 121 random 5;
#X obj 38 78 tgl 15 0 empty empty empty 17 7 0 10 -262144 -1 -1 0 1
;
#X obj 38 141 sel 1 2 3;
#X msg 100 34 148;
#X obj 38 100 metro 405.4;
#X obj 102 161 random 5;
#X obj 102 182 sel 1 2 3;
#X obj 102 142 bng 15 250 50 0 empty empty empty 17 7 0 10 -262144
-1 -1;
#X obj 100 206 del 300;
#X obj 38 59 inlet;
#X obj 100 13 r load1;
#X obj 246 299 s touchsend;
#X msg 246 278 ride \$1;
#X obj 246 239 random 5;
#X obj 246 258 + 1;
#X connect 0 0 2 0;
#X connect 2 0 5 0;
#X connect 2 0 9 0;
#X connect 3 0 0 0;
#X connect 4 0 6 0;
#X connect 5 0 4 0;
#X connect 7 0 8 2;
#X connect 8 0 13 0;
#X connect 10 0 8 1;
#X connect 11 0 18 0;
#X connect 12 0 15 0;
#X connect 13 0 12 0;
#X connect 15 0 16 0;
#X connect 16 0 14 0;
#X connect 17 0 16 1;
#X connect 18 0 8 0;
#X connect 18 1 22 0;
#X connect 18 1 38 0;
#X connect 19 0 20 0;
#X connect 20 0 17 0;
#X connect 21 0 19 0;
#X connect 22 0 21 0;
#X connect 24 0 23 0;
#X connect 24 0 29 1;
#X connect 25 0 27 0;
#X connect 26 0 29 0;
#X connect 27 0 11 0;
#X connect 27 1 11 0;
#X connect 27 2 11 0;
#X connect 27 3 32 0;
#X connect 28 0 24 0;
#X connect 29 0 25 0;
#X connect 30 0 31 0;
#X connect 31 0 33 0;
#X connect 31 1 33 0;
#X connect 31 2 33 0;
#X connect 32 0 30 0;
#X connect 33 0 11 0;
#X connect 34 0 26 0;
#X connect 35 0 28 0;
#X connect 37 0 36 0;
#X connect 38 0 39 0;
#X connect 39 0 37 0;
#X restore 241 478 pd ride;
#N canvas 454 75 726 624 idmloop 0;
#N canvas 0 22 450 300 (subpatch) 0;
#X array loop 622704 float 2;
#X coords 0 1 622704 -1 200 140 1;
#X restore 367 102 graph;
#X obj 369 302 soundfiler;
#X obj 369 245 r load1;
#X floatatom 369 342 5 0 0 0 - - -;
#X obj 369 322 / 48;
#X obj 48 333 pack 0 f f;
#X obj 48 375 line~;
#X msg 48 354 \$1 \, \$2 \$3;
#X obj 48 509 throw~ test;
#X obj 48 467 *~;
#X obj 63 447 line~;
#X obj 194 350 dbtorms;
#X msg 194 371 \$1 50;
#X obj 194 330 + 85;
#X obj 194 310 random 15;
#X floatatom 270 236 5 0 0 0 - - -;
#X obj 257 186 expr 60000 / $f1;
#X obj 194 240 tgl 15 0 empty empty empty 17 7 0 10 -262144 -1 -1 0
1;
#X msg 256 166 148;
#X obj 194 262 metro 405.4;
#X obj 256 147 r load1;
#X msg 369 267 read -resize /Users/ericbohanon/Desktop/RHC/TD3D/sfs/drumLoop.wav
loop;
#X obj 48 161 tgl 15 0 empty empty empty 17 7 0 10 -262144 -1 -1 0
1;
#X obj 48 396 tabread4~ loop;
#X obj 48 488 *~ 0.5;
#X obj 191 470 sel 1;
#X msg 191 491 1;
#X obj 191 560 outlet;
#X obj 211 537 spigot;
#X msg 223 491 0;
#X obj 164 425 t f b;
#X obj 139 449 == 0;
#X obj 144 477 sel 1;
#X msg 146 503 0;
#X floatatom 239 564 5 0 0 0 - - -;
#X obj 191 447 random 2;
#X obj 94 100 != 1;
#X obj 50 101 spigot;
#X obj 49 72 sel 1;
#X obj 48 29 inlet;
#X floatatom 127 71 5 0 0 0 - - -;
#X msg 123 44 0;
#X obj 124 25 r load1;
#X obj 129 100 bng 15 250 50 0 empty empty empty 17 7 0 10 -262144
-1 -1;
#X obj 245 79 sel 0;
#X obj 258 108 del 500;
#X obj 49 49 random 10;
#X obj 78 242 del;
#X msg 76 265 0;
#X obj 48 180 t f f;
#X obj 75 217 sel 1;
#X obj 369 362 s drum-length;
#X obj 406 340 s drum-size;
#X obj 76 290 r drum-size;
#X obj 104 312 r drum-length;
#X obj 257 311 random 30;
#X obj 258 331 sel 5;
#X msg 259 354 0;
#X obj 259 374 t f f;
#X obj 135 203 s touchsend;
#X msg 135 182 drum \$1;
#X connect 1 0 4 0;
#X connect 1 0 52 0;
#X connect 2 0 21 0;
#X connect 3 0 51 0;
#X connect 4 0 3 0;
#X connect 5 0 7 0;
#X connect 6 0 23 0;
#X connect 7 0 6 0;
#X connect 9 0 24 0;
#X connect 10 0 9 1;
#X connect 11 0 12 0;
#X connect 12 0 10 0;
#X connect 13 0 11 0;
#X connect 14 0 13 0;
#X connect 16 0 15 0;
#X connect 16 0 19 1;
#X connect 17 0 19 0;
#X connect 17 0 30 0;
#X connect 17 0 31 0;
#X connect 17 0 44 0;
#X connect 18 0 16 0;
#X connect 19 0 14 0;
#X connect 19 0 55 0;
#X connect 20 0 18 0;
#X connect 21 0 1 0;
#X connect 22 0 36 0;
#X connect 22 0 49 0;
#X connect 23 0 9 0;
#X connect 24 0 8 0;
#X connect 25 0 26 0;
#X connect 25 1 29 0;
#X connect 26 0 28 1;
#X connect 28 0 27 0;
#X connect 28 0 34 0;
#X connect 29 0 28 1;
#X connect 30 0 28 0;
#X connect 30 1 35 0;
#X connect 31 0 32 0;
#X connect 32 0 33 0;
#X connect 33 0 27 0;
#X connect 35 0 25 0;
#X connect 36 0 37 1;
#X connect 37 0 22 0;
#X connect 38 0 37 0;
#X connect 38 0 43 0;
#X connect 39 0 46 0;
#X connect 41 0 36 0;
#X connect 42 0 41 0;
#X connect 44 0 45 0;
#X connect 45 0 41 0;
#X connect 46 0 38 0;
#X connect 46 0 40 0;
#X connect 47 0 48 0;
#X connect 48 0 22 0;
#X connect 49 0 17 0;
#X connect 49 1 50 0;
#X connect 49 1 60 0;
#X connect 50 0 5 0;
#X connect 50 0 47 0;
#X connect 53 0 5 1;
#X connect 54 0 5 2;
#X connect 54 0 47 1;
#X connect 55 0 56 0;
#X connect 56 0 57 0;
#X connect 57 0 58 0;
#X connect 58 0 10 0;
#X connect 58 1 17 0;
#X connect 60 0 59 0;
#X restore 241 453 pd idmloop;
#X obj 485 585 poly-voice 3;
#X obj 168 126 bng 15 250 50 0 empty empty empty 17 7 0 10 -262144
-1 -1;
#X obj 25 525 poly-voice 1;
#X obj 35 555 poly-voice 2;
#X obj 45 585 poly-voice 3;
#X obj 55 615 poly-voice 4;
#X obj 65 645 poly-voice 5;
#X obj 128 525 poly-voice 6;
#X obj 138 555 poly-voice 7;
#X obj 148 585 poly-voice 8;
#X obj 158 615 poly-voice 9;
#X obj 168 645 poly-voice 10;
#X obj 245 525 poly-voice 1;
#X obj 255 555 poly-voice 2;
#X obj 265 585 poly-voice 3;
#X obj 275 615 poly-voice 4;
#X obj 285 645 poly-voice 5;
#X obj 348 525 poly-voice 6;
#X obj 358 555 poly-voice 7;
#X obj 368 585 poly-voice 8;
#X obj 378 615 poly-voice 9;
#X obj 388 645 poly-voice 10;
#X obj 465 525 poly-voice 1;
#X obj 475 555 poly-voice 2;
#X obj 495 615 poly-voice 4;
#X obj 505 645 poly-voice 5;
#X obj 568 525 poly-voice 6;
#X obj 578 555 poly-voice 7;
#X obj 588 585 poly-voice 8;
#X obj 598 615 poly-voice 9;
#X obj 608 645 poly-voice 10;
#X floatatom 289 251 5 0 0 0 - - -;
#X obj 276 201 expr 60000 / $f1;
#X msg 275 181 148;
#X obj 189 258 metro 405.4;
#X obj 275 162 r load1;
#X obj 52 99 random 20;
#X obj 189 155 r load2;
#X msg 189 176 1;
#X obj 195 201 r debug-mode;
#X msg 207 230 0;
#X obj 189 6 bng 15 250 50 0 empty empty empty 17 7 0 10 -262144 -1
-1;
#X obj 212 6 bng 15 250 50 0 empty empty empty 17 7 0 10 -262144 -1
-1;
#X obj 52 118 + 10;
#X obj 189 299 sel 1;
#X obj 189 409 f;
#X obj 189 279 random 5;
#X obj 67 253 random 10;
#X connect 0 0 11 0;
#X connect 2 0 0 0;
#X connect 2 1 18 1;
#X connect 3 0 4 0;
#X connect 4 0 28 0;
#X connect 4 1 67 0;
#X connect 5 0 3 0;
#X connect 6 0 5 0;
#X connect 7 0 2 0;
#X connect 7 0 76 1;
#X connect 8 0 18 2;
#X connect 10 0 18 3;
#X connect 11 0 18 0;
#X connect 11 0 25 0;
#X connect 12 0 33 0;
#X connect 12 1 34 0;
#X connect 12 2 35 0;
#X connect 12 3 36 0;
#X connect 12 4 37 0;
#X connect 12 5 38 0;
#X connect 12 6 39 0;
#X connect 12 7 40 0;
#X connect 12 8 41 0;
#X connect 12 9 42 0;
#X connect 12 10 13 0;
#X connect 13 0 43 0;
#X connect 13 1 44 0;
#X connect 13 2 45 0;
#X connect 13 3 46 0;
#X connect 13 4 47 0;
#X connect 13 5 48 0;
#X connect 13 6 49 0;
#X connect 13 7 50 0;
#X connect 13 8 51 0;
#X connect 13 9 52 0;
#X connect 13 10 14 0;
#X connect 14 0 53 0;
#X connect 14 1 54 0;
#X connect 14 2 31 0;
#X connect 14 3 55 0;
#X connect 14 4 56 0;
#X connect 14 5 57 0;
#X connect 14 6 58 0;
#X connect 14 7 59 0;
#X connect 14 8 60 0;
#X connect 14 9 61 0;
#X connect 15 0 18 5;
#X connect 16 0 18 6;
#X connect 17 0 18 7;
#X connect 18 0 12 0;
#X connect 19 0 3 0;
#X connect 20 0 23 0;
#X connect 22 0 3 0;
#X connect 23 0 21 0;
#X connect 24 0 21 0;
#X connect 26 0 18 4;
#X connect 28 0 7 0;
#X connect 28 1 8 0;
#X connect 28 2 10 0;
#X connect 28 3 78 0;
#X connect 28 4 15 0;
#X connect 28 5 16 0;
#X connect 28 6 17 0;
#X connect 30 0 29 0;
#X connect 32 0 28 0;
#X connect 63 0 62 0;
#X connect 63 0 65 1;
#X connect 64 0 63 0;
#X connect 65 0 30 0;
#X connect 65 0 77 0;
#X connect 66 0 64 0;
#X connect 67 0 74 0;
#X connect 68 0 69 0;
#X connect 69 0 65 0;
#X connect 70 0 65 0;
#X connect 71 0 65 0;
#X connect 72 0 69 0;
#X connect 72 0 5 0;
#X connect 73 0 71 0;
#X connect 73 0 19 0;
#X connect 74 0 3 1;
#X connect 75 0 76 0;
#X connect 76 0 27 0;
#X connect 77 0 75 0;
#X connect 78 0 26 0;
#X restore 152 47 pd poly-synth;
#X obj 239 47 0-WaveTables-load;
#N canvas 739 37 497 551 test 1;
#X floatatom 111 252 5 0 0 0 - - -;
#X obj 111 308 phasor~;
#X obj 111 270 mtof;
#X obj 111 289 +~;
#X obj 111 327 *~ 599;
#X obj 111 397 *~;
#X msg 111 213 \$1 50;
#X obj 111 232 line;
#X obj 111 485 throw~ test;
#X obj 228 274 hsl 128 15 0 127 0 0 empty empty empty -2 -8 0 10 -262144
-1 -1 0 1;
#X obj 225 291 / 127;
#X obj 225 310 * 100;
#X obj 225 329 dbtorms;
#X obj 225 367 line~;
#X msg 225 348 \$1 50;
#X obj 225 238 line;
#X obj 258 254 sel 127;
#X obj 111 444 +~;
#X obj 126 424 rev3~ 97 95 3000 33;
#X msg 302 216 0 100;
#X obj 225 198 bng 15 250 50 0 empty empty empty 17 7 0 10 -262144
-1 -1;
#X obj 111 12 inlet;
#X obj 111 194 t f b;
#X obj 111 464 *~ 0.1;
#X obj 153 53 > 88;
#X obj 111 174 -;
#X floatatom 163 182 5 0 0 0 - - -;
#X floatatom 211 107 5 0 0 0 - - -;
#X obj 153 74 * 12;
#X obj 111 346 tabread4~ 1a;
#X msg 158 18 0;
#X msg 225 217 0 \, 127 500;
#X obj 314 241 del 1000;
#X obj 111 32 + 30;
#X connect 0 0 2 0;
#X connect 1 0 4 0;
#X connect 2 0 3 0;
#X connect 3 0 1 0;
#X connect 4 0 29 0;
#X connect 5 0 17 0;
#X connect 5 0 18 0;
#X connect 6 0 7 0;
#X connect 7 0 0 0;
#X connect 9 0 10 0;
#X connect 10 0 11 0;
#X connect 11 0 12 0;
#X connect 12 0 14 0;
#X connect 13 0 5 1;
#X connect 14 0 13 0;
#X connect 15 0 9 0;
#X connect 15 0 16 0;
#X connect 16 0 32 0;
#X connect 17 0 23 0;
#X connect 18 0 17 1;
#X connect 19 0 15 0;
#X connect 20 0 31 0;
#X connect 21 0 33 0;
#X connect 22 0 6 0;
#X connect 22 1 20 0;
#X connect 23 0 8 0;
#X connect 24 0 28 0;
#X connect 25 0 22 0;
#X connect 25 0 26 0;
#X connect 28 0 25 1;
#X connect 29 0 5 0;
#X connect 30 0 33 0;
#X connect 31 0 15 0;
#X connect 32 0 19 0;
#X connect 33 0 24 0;
#X connect 33 0 25 0;
#X connect 33 0 27 0;
#X restore 168 28 pd test;
#N canvas 732 22 706 810 network 0;
#X floatatom 217 101 5 0 0 0 - - -;
#X text 163 100 Connect?;
#X obj 86 76 netreceive 3000;
#X obj 86 120 route xpos ypos acc xv yv;
#X obj 267 54 r touchsend;
#X obj 267 100 netsend;
#X msg 342 75 connect localhost 5000;
#X obj 342 54 r load1;
#X floatatom 267 122 5 0 0 0 - - -;
#X obj 267 76 spigot;
#X obj 86 367 s scaleNote;
#X obj 115 347 s melAmp;
#X obj 86 347 int;
#X obj 86 327 * 9;
#X obj 115 287 * 15;
#X obj 115 307 + 85;
#X obj 115 327 dbtorms;
#X obj 144 267 s bend;
#X obj 174 247 s fieldX;
#X obj 203 227 s fieldY;
#X connect 2 0 3 0;
#X connect 2 1 0 0;
#X connect 3 0 13 0;
#X connect 3 1 14 0;
#X connect 3 2 17 0;
#X connect 3 3 18 0;
#X connect 3 4 19 0;
#X connect 4 0 9 0;
#X connect 5 0 8 0;
#X connect 6 0 5 0;
#X connect 7 0 6 0;
#X connect 8 0 9 1;
#X connect 9 0 5 0;
#X connect 12 0 10 0;
#X connect 13 0 12 0;
#X connect 14 0 15 0;
#X connect 15 0 16 0;
#X connect 16 0 11 0;
#X coords 0 -1 1 1 150 18 1 100 100;
#X restore 163 66 pd network;
